{
	"asset":{
		"generator":"Khronos glTF Blender I/O v4.1.62",
		"version":"2.0"
	},
	"scene":0,
	"scenes":[
		{
			"name":"Scene",
			"nodes":[
				0
			]
		}
	],
	"nodes":[
		{
			"mesh":0,
			"name":"Cube",
			"scale":[
				20,
				1,
				20
			],
			"translation":[
				0,
				-1.6146807670593262,
				0
			]
		}
	],
	"materials":[
		{
			"doubleSided":true,
			"name":"Material",
			"pbrMetallicRoughness":{
				"baseColorTexture":{
					"index":0
				},
				"metallicFactor":0
			}
		}
	],
	"meshes":[
		{
			"name":"Cube",
			"primitives":[
				{
					"attributes":{
						"POSITION":0,
						"NORMAL":1,
						"TEXCOORD_0":2
					},
					"indices":3,
					"material":0
				}
			]
		}
	],
	"textures":[
		{
			"sampler":0,
			"source":0
		}
	],
	"images":[
		{
			"mimeType":"image/jpeg",
			"name":"grid-futuristic-hud-interface_79145-165",
			"uri":"grid-futuristic-hud-interface_79145-165.jpg"
		}
	],
	"accessors":[
		{
			"bufferView":0,
			"componentType":5126,
			"count":213,
			"max":[
				1,
				2.918032169342041,
				1
			],
			"min":[
				-1,
				-1,
				-1
			],
			"type":"VEC3"
		},
		{
			"bufferView":1,
			"componentType":5126,
			"count":213,
			"type":"VEC3"
		},
		{
			"bufferView":2,
			"componentType":5126,
			"count":213,
			"type":"VEC2"
		},
		{
			"bufferView":3,
			"componentType":5123,
			"count":480,
			"type":"SCALAR"
		}
	],
	"bufferViews":[
		{
			"buffer":0,
			"byteLength":2556,
			"byteOffset":0,
			"target":34962
		},
		{
			"buffer":0,
			"byteLength":2556,
			"byteOffset":2556,
			"target":34962
		},
		{
			"buffer":0,
			"byteLength":1704,
			"byteOffset":5112,
			"target":34962
		},
		{
			"buffer":0,
			"byteLength":960,
			"byteOffset":6816,
			"target":34963
		}
	],
	"samplers":[
		{
			"magFilter":9729,
			"minFilter":9987
		}
	],
	"buffers":[
		{
			"byteLength":7776,
			"uri":"ground.bin"
		}
	]
}
