{
	"asset":{
		"generator":"Khronos glTF Blender I/O v4.1.62",
		"version":"2.0"
	},
	"scene":0,
	"scenes":[
		{
			"name":"Scene",
			"nodes":[
				0,
				1
			]
		}
	],
	"nodes":[
		{
			"mesh":0,
			"name":"Cube.001"
		},
		{
			"mesh":1,
			"name":"Start",
			"translation":[
				0,
				-0.43886053562164307,
				0
			]
		}
	],
	"materials":[
		{
			"doubleSided":true,
			"name":"Material.001",
			"pbrMetallicRoughness":{
				"baseColorTexture":{
					"index":0
				},
				"metallicFactor":0
			}
		},
		{
			"doubleSided":true,
			"name":"corrugated_iron_02",
			"normalTexture":{
				"index":1
			},
			"pbrMetallicRoughness":{
				"baseColorTexture":{
					"index":2
				},
				"metallicRoughnessTexture":{
					"index":3
				}
			}
		}
	],
	"meshes":[
		{
			"name":"Cube.001",
			"primitives":[
				{
					"attributes":{
						"POSITION":0,
						"NORMAL":1,
						"TEXCOORD_0":2
					},
					"indices":3,
					"material":0
				}
			]
		},
		{
			"name":"\u7acb\u65b9\u4f53.001",
			"primitives":[
				{
					"attributes":{
						"POSITION":4,
						"NORMAL":5,
						"TEXCOORD_0":6
					},
					"indices":7,
					"material":1
				}
			]
		}
	],
	"textures":[
		{
			"sampler":0,
			"source":0
		},
		{
			"sampler":0,
			"source":1
		},
		{
			"sampler":0,
			"source":2
		},
		{
			"sampler":0,
			"source":3
		}
	],
	"images":[
		{
			"mimeType":"image/jpeg",
			"name":"grid-futuristic-hud-interface_79145-165",
			"uri":"grid-futuristic-hud-interface_79145-165.jpg"
		},
		{
			"mimeType":"image/jpeg",
			"name":"corrugated_iron_02_nor_gl_4k",
			"uri":"corrugated_iron_02_nor_gl_4k.jpg"
		},
		{
			"mimeType":"image/jpeg",
			"name":"corrugated_iron_02_diff_4k",
			"uri":"corrugated_iron_02_diff_4k.jpg"
		},
		{
			"mimeType":"image/jpeg",
			"name":"corrugated_iron_02_arm_4k",
			"uri":"corrugated_iron_02_arm_4k.jpg"
		}
	],
	"accessors":[
		{
			"bufferView":0,
			"componentType":5126,
			"count":213,
			"max":[
				20,
				-2.9771628379821777,
				-8.961395263671875
			],
			"min":[
				-20,
				-6.895195007324219,
				-48.961395263671875
			],
			"type":"VEC3"
		},
		{
			"bufferView":1,
			"componentType":5126,
			"count":213,
			"type":"VEC3"
		},
		{
			"bufferView":2,
			"componentType":5126,
			"count":213,
			"type":"VEC2"
		},
		{
			"bufferView":3,
			"componentType":5123,
			"count":480,
			"type":"SCALAR"
		},
		{
			"bufferView":4,
			"componentType":5126,
			"count":78,
			"max":[
				3,
				2.546921730041504,
				1.8178176879882812
			],
			"min":[
				-3,
				-0.10000000149011612,
				-10.182182312011719
			],
			"type":"VEC3"
		},
		{
			"bufferView":5,
			"componentType":5126,
			"count":78,
			"type":"VEC3"
		},
		{
			"bufferView":6,
			"componentType":5126,
			"count":78,
			"type":"VEC2"
		},
		{
			"bufferView":7,
			"componentType":5123,
			"count":165,
			"type":"SCALAR"
		}
	],
	"bufferViews":[
		{
			"buffer":0,
			"byteLength":2556,
			"byteOffset":0,
			"target":34962
		},
		{
			"buffer":0,
			"byteLength":2556,
			"byteOffset":2556,
			"target":34962
		},
		{
			"buffer":0,
			"byteLength":1704,
			"byteOffset":5112,
			"target":34962
		},
		{
			"buffer":0,
			"byteLength":960,
			"byteOffset":6816,
			"target":34963
		},
		{
			"buffer":0,
			"byteLength":936,
			"byteOffset":7776,
			"target":34962
		},
		{
			"buffer":0,
			"byteLength":936,
			"byteOffset":8712,
			"target":34962
		},
		{
			"buffer":0,
			"byteLength":624,
			"byteOffset":9648,
			"target":34962
		},
		{
			"buffer":0,
			"byteLength":330,
			"byteOffset":10272,
			"target":34963
		}
	],
	"samplers":[
		{
			"magFilter":9729,
			"minFilter":9987
		}
	],
	"buffers":[
		{
			"byteLength":10604,
			"uri":"Stage.bin"
		}
	]
}
