{
	"asset":{
		"generator":"Khronos glTF Blender I/O v4.1.62",
		"version":"2.0"
	},
	"scene":0,
	"scenes":[
		{
			"name":"Scene",
			"nodes":[
				0,
				1
			]
		}
	],
	"nodes":[
		{
			"mesh":0,
			"name":"Cube.001",
			"scale":[
				200,
				10,
				200
			],
			"translation":[
				0,
				-81.51350402832031,
				-302.3111267089844
			]
		},
		{
			"mesh":1,
			"name":"Start",
			"scale":[
				30,
				1,
				60
			],
			"translation":[
				0,
				0,
				-38.50437927246094
			]
		}
	],
	"materials":[
		{
			"doubleSided":true,
			"name":"Material.001",
			"pbrMetallicRoughness":{
				"baseColorTexture":{
					"index":0
				},
				"metallicFactor":0
			}
		}
	],
	"meshes":[
		{
			"name":"Cube.001",
			"primitives":[
				{
					"attributes":{
						"POSITION":0,
						"NORMAL":1,
						"TEXCOORD_0":2
					},
					"indices":3,
					"material":0
				}
			]
		},
		{
			"name":"\u7acb\u65b9\u4f53.001",
			"primitives":[
				{
					"attributes":{
						"POSITION":4,
						"NORMAL":5,
						"TEXCOORD_0":6
					},
					"indices":7
				}
			]
		}
	],
	"textures":[
		{
			"sampler":0,
			"source":0
		}
	],
	"images":[
		{
			"mimeType":"image/jpeg",
			"name":"grid-futuristic-hud-interface_79145-165",
			"uri":"grid-futuristic-hud-interface_79145-165.jpg"
		}
	],
	"accessors":[
		{
			"bufferView":0,
			"componentType":5126,
			"count":213,
			"max":[
				1,
				2.918032169342041,
				1
			],
			"min":[
				-1,
				-1,
				-1
			],
			"type":"VEC3"
		},
		{
			"bufferView":1,
			"componentType":5126,
			"count":213,
			"type":"VEC3"
		},
		{
			"bufferView":2,
			"componentType":5126,
			"count":213,
			"type":"VEC2"
		},
		{
			"bufferView":3,
			"componentType":5123,
			"count":480,
			"type":"SCALAR"
		},
		{
			"bufferView":4,
			"componentType":5126,
			"count":78,
			"max":[
				1,
				25.46921730041504,
				1
			],
			"min":[
				-1,
				-1,
				-1
			],
			"type":"VEC3"
		},
		{
			"bufferView":5,
			"componentType":5126,
			"count":78,
			"type":"VEC3"
		},
		{
			"bufferView":6,
			"componentType":5126,
			"count":78,
			"type":"VEC2"
		},
		{
			"bufferView":7,
			"componentType":5123,
			"count":165,
			"type":"SCALAR"
		}
	],
	"bufferViews":[
		{
			"buffer":0,
			"byteLength":2556,
			"byteOffset":0,
			"target":34962
		},
		{
			"buffer":0,
			"byteLength":2556,
			"byteOffset":2556,
			"target":34962
		},
		{
			"buffer":0,
			"byteLength":1704,
			"byteOffset":5112,
			"target":34962
		},
		{
			"buffer":0,
			"byteLength":960,
			"byteOffset":6816,
			"target":34963
		},
		{
			"buffer":0,
			"byteLength":936,
			"byteOffset":7776,
			"target":34962
		},
		{
			"buffer":0,
			"byteLength":936,
			"byteOffset":8712,
			"target":34962
		},
		{
			"buffer":0,
			"byteLength":624,
			"byteOffset":9648,
			"target":34962
		},
		{
			"buffer":0,
			"byteLength":330,
			"byteOffset":10272,
			"target":34963
		}
	],
	"samplers":[
		{
			"magFilter":9729,
			"minFilter":9987
		}
	],
	"buffers":[
		{
			"byteLength":10604,
			"uri":"Stage.bin"
		}
	]
}
