{
	"asset":{
		"generator":"Khronos glTF Blender I/O v4.1.62",
		"version":"2.0"
	},
	"scene":0,
	"scenes":[
		{
			"name":"Scene",
			"nodes":[
				0,
				1,
				2,
				3,
				4,
				5,
				6,
				7
			]
		}
	],
	"nodes":[
		{
			"mesh":0,
			"name":"Start"
		},
		{
			"mesh":1,
			"name":"\u7acb\u65b9\u4f53"
		},
		{
			"mesh":2,
			"name":"\u7acb\u65b9\u4f53.001"
		},
		{
			"mesh":3,
			"name":"\u7acb\u65b9\u4f53.002"
		},
		{
			"mesh":4,
			"name":"\u7acb\u65b9\u4f53.003"
		},
		{
			"mesh":5,
			"name":"\u7acb\u65b9\u4f53.004"
		},
		{
			"mesh":6,
			"name":"\u7acb\u65b9\u4f53.005"
		},
		{
			"mesh":7,
			"name":"\u7acb\u65b9\u4f53.006"
		}
	],
	"materials":[
		{
			"doubleSided":true,
			"name":"corrugated_iron_02",
			"normalTexture":{
				"index":0
			},
			"pbrMetallicRoughness":{
				"baseColorTexture":{
					"index":1
				},
				"metallicRoughnessTexture":{
					"index":2
				}
			}
		},
		{
			"doubleSided":true,
			"name":"blue_metal_plate",
			"normalTexture":{
				"index":3
			},
			"pbrMetallicRoughness":{
				"baseColorTexture":{
					"index":4
				},
				"metallicFactor":0,
				"metallicRoughnessTexture":{
					"index":5
				}
			}
		},
		{
			"doubleSided":true,
			"name":"Material.001",
			"pbrMetallicRoughness":{
				"baseColorTexture":{
					"index":6
				},
				"metallicFactor":0
			}
		}
	],
	"meshes":[
		{
			"name":"\u7acb\u65b9\u4f53.001",
			"primitives":[
				{
					"attributes":{
						"POSITION":0,
						"NORMAL":1,
						"TEXCOORD_0":2
					},
					"indices":3,
					"material":0
				}
			]
		},
		{
			"name":"\u7acb\u65b9\u4f53.002",
			"primitives":[
				{
					"attributes":{
						"POSITION":4,
						"NORMAL":5,
						"TEXCOORD_0":6
					},
					"indices":7,
					"material":1
				}
			]
		},
		{
			"name":"\u7acb\u65b9\u4f53.007",
			"primitives":[
				{
					"attributes":{
						"POSITION":8,
						"NORMAL":9,
						"TEXCOORD_0":10
					},
					"indices":11,
					"material":0
				}
			]
		},
		{
			"name":"\u7acb\u65b9\u4f53.010",
			"primitives":[
				{
					"attributes":{
						"POSITION":12,
						"NORMAL":13,
						"TEXCOORD_0":14
					},
					"indices":7,
					"material":2
				}
			]
		},
		{
			"name":"\u7acb\u65b9\u4f53.012",
			"primitives":[
				{
					"attributes":{
						"POSITION":15,
						"NORMAL":16,
						"TEXCOORD_0":17
					},
					"indices":7,
					"material":2
				}
			]
		},
		{
			"name":"\u7acb\u65b9\u4f53.016",
			"primitives":[
				{
					"attributes":{
						"POSITION":18,
						"NORMAL":19,
						"TEXCOORD_0":20
					},
					"indices":21,
					"material":0
				}
			]
		},
		{
			"name":"\u7acb\u65b9\u4f53.017",
			"primitives":[
				{
					"attributes":{
						"POSITION":22,
						"NORMAL":23,
						"TEXCOORD_0":24
					},
					"indices":25,
					"material":0
				}
			]
		},
		{
			"name":"\u7acb\u65b9\u4f53.020",
			"primitives":[
				{
					"attributes":{
						"POSITION":26,
						"NORMAL":27,
						"TEXCOORD_0":28
					},
					"indices":7,
					"material":2
				}
			]
		}
	],
	"textures":[
		{
			"sampler":0,
			"source":0
		},
		{
			"sampler":0,
			"source":1
		},
		{
			"sampler":0,
			"source":2
		},
		{
			"sampler":0,
			"source":3
		},
		{
			"sampler":0,
			"source":4
		},
		{
			"sampler":0,
			"source":5
		},
		{
			"sampler":0,
			"source":6
		}
	],
	"images":[
		{
			"mimeType":"image/jpeg",
			"name":"corrugated_iron_02_nor_gl_4k",
			"uri":"corrugated_iron_02_nor_gl_4k.jpg"
		},
		{
			"mimeType":"image/png",
			"name":"corrugated_iron_02_diff_4k",
			"uri":"corrugated_iron_02_diff_4k.png"
		},
		{
			"mimeType":"image/jpeg",
			"name":"corrugated_iron_02_arm_4k",
			"uri":"corrugated_iron_02_arm_4k.jpg"
		},
		{
			"mimeType":"image/jpeg",
			"name":"blue_metal_plate_nor_gl_4k",
			"uri":"blue_metal_plate_nor_gl_4k.jpg"
		},
		{
			"mimeType":"image/png",
			"name":"blue_metal_plate_diff_4k",
			"uri":"blue_metal_plate_diff_4k.png"
		},
		{
			"mimeType":"image/jpeg",
			"name":"blue_metal_plate_arm_4k",
			"uri":"blue_metal_plate_arm_4k.jpg"
		},
		{
			"mimeType":"image/jpeg",
			"name":"grid-futuristic-hud-interface_79145-165",
			"uri":"grid-futuristic-hud-interface_79145-165.jpg"
		}
	],
	"accessors":[
		{
			"bufferView":0,
			"componentType":5126,
			"count":78,
			"max":[
				6.387508392333984,
				8.470541000366211,
				3.8305702209472656
			],
			"min":[
				-6.387508392333984,
				-0.6327370405197144,
				-26.83144760131836
			],
			"type":"VEC3"
		},
		{
			"bufferView":1,
			"componentType":5126,
			"count":78,
			"type":"VEC3"
		},
		{
			"bufferView":2,
			"componentType":5126,
			"count":78,
			"type":"VEC2"
		},
		{
			"bufferView":3,
			"componentType":5123,
			"count":165,
			"type":"SCALAR"
		},
		{
			"bufferView":4,
			"componentType":5126,
			"count":24,
			"max":[
				5.4415602684021,
				1.4572490453720093,
				-12.685953140258789
			],
			"min":[
				-5.4415602684021,
				-0.8136061429977417,
				-17.386432647705078
			],
			"type":"VEC3"
		},
		{
			"bufferView":5,
			"componentType":5126,
			"count":24,
			"type":"VEC3"
		},
		{
			"bufferView":6,
			"componentType":5126,
			"count":24,
			"type":"VEC2"
		},
		{
			"bufferView":7,
			"componentType":5123,
			"count":36,
			"type":"SCALAR"
		},
		{
			"bufferView":8,
			"componentType":5126,
			"count":104,
			"max":[
				11.813069343566895,
				8.501518249511719,
				-26.462024688720703
			],
			"min":[
				-11.813069343566895,
				-7.184137344360352,
				-45.95718002319336
			],
			"type":"VEC3"
		},
		{
			"bufferView":9,
			"componentType":5126,
			"count":104,
			"type":"VEC3"
		},
		{
			"bufferView":10,
			"componentType":5126,
			"count":104,
			"type":"VEC2"
		},
		{
			"bufferView":11,
			"componentType":5123,
			"count":228,
			"type":"SCALAR"
		},
		{
			"bufferView":12,
			"componentType":5126,
			"count":24,
			"max":[
				17.03526496887207,
				-5.847322463989258,
				-18.619680404663086
			],
			"min":[
				-17.03526496887207,
				-6.903435707092285,
				-52.690208435058594
			],
			"type":"VEC3"
		},
		{
			"bufferView":13,
			"componentType":5126,
			"count":24,
			"type":"VEC3"
		},
		{
			"bufferView":14,
			"componentType":5126,
			"count":24,
			"type":"VEC2"
		},
		{
			"bufferView":15,
			"componentType":5126,
			"count":24,
			"max":[
				5.72361421585083,
				0.2797192335128784,
				4.6478166580200195
			],
			"min":[
				-5.72361421585083,
				-0.5089977979660034,
				-26.87342071533203
			],
			"type":"VEC3"
		},
		{
			"bufferView":16,
			"componentType":5126,
			"count":24,
			"type":"VEC3"
		},
		{
			"bufferView":17,
			"componentType":5126,
			"count":24,
			"type":"VEC2"
		},
		{
			"bufferView":18,
			"componentType":5126,
			"count":112,
			"max":[
				12.068201065063477,
				-0.2695484161376953,
				-52.47123336791992
			],
			"min":[
				-12.068201065063477,
				-15.955204010009766,
				-76.60763549804688
			],
			"type":"VEC3"
		},
		{
			"bufferView":19,
			"componentType":5126,
			"count":112,
			"type":"VEC3"
		},
		{
			"bufferView":20,
			"componentType":5126,
			"count":112,
			"type":"VEC2"
		},
		{
			"bufferView":21,
			"componentType":5123,
			"count":240,
			"type":"SCALAR"
		},
		{
			"bufferView":22,
			"componentType":5126,
			"count":48,
			"max":[
				2.8419628143310547,
				-0.2719388008117676,
				-45.7440071105957
			],
			"min":[
				-2.8419628143310547,
				-5.955864429473877,
				-52.847930908203125
			],
			"type":"VEC3"
		},
		{
			"bufferView":23,
			"componentType":5126,
			"count":48,
			"type":"VEC3"
		},
		{
			"bufferView":24,
			"componentType":5126,
			"count":48,
			"type":"VEC2"
		},
		{
			"bufferView":25,
			"componentType":5123,
			"count":84,
			"type":"SCALAR"
		},
		{
			"bufferView":26,
			"componentType":5126,
			"count":24,
			"max":[
				17.03526496887207,
				-11.023014068603516,
				-47.66307830810547
			],
			"min":[
				-17.03526496887207,
				-12.079126358032227,
				-81.73360443115234
			],
			"type":"VEC3"
		},
		{
			"bufferView":27,
			"componentType":5126,
			"count":24,
			"type":"VEC3"
		},
		{
			"bufferView":28,
			"componentType":5126,
			"count":24,
			"type":"VEC2"
		}
	],
	"bufferViews":[
		{
			"buffer":0,
			"byteLength":936,
			"byteOffset":0,
			"target":34962
		},
		{
			"buffer":0,
			"byteLength":936,
			"byteOffset":936,
			"target":34962
		},
		{
			"buffer":0,
			"byteLength":624,
			"byteOffset":1872,
			"target":34962
		},
		{
			"buffer":0,
			"byteLength":330,
			"byteOffset":2496,
			"target":34963
		},
		{
			"buffer":0,
			"byteLength":288,
			"byteOffset":2828,
			"target":34962
		},
		{
			"buffer":0,
			"byteLength":288,
			"byteOffset":3116,
			"target":34962
		},
		{
			"buffer":0,
			"byteLength":192,
			"byteOffset":3404,
			"target":34962
		},
		{
			"buffer":0,
			"byteLength":72,
			"byteOffset":3596,
			"target":34963
		},
		{
			"buffer":0,
			"byteLength":1248,
			"byteOffset":3668,
			"target":34962
		},
		{
			"buffer":0,
			"byteLength":1248,
			"byteOffset":4916,
			"target":34962
		},
		{
			"buffer":0,
			"byteLength":832,
			"byteOffset":6164,
			"target":34962
		},
		{
			"buffer":0,
			"byteLength":456,
			"byteOffset":6996,
			"target":34963
		},
		{
			"buffer":0,
			"byteLength":288,
			"byteOffset":7452,
			"target":34962
		},
		{
			"buffer":0,
			"byteLength":288,
			"byteOffset":7740,
			"target":34962
		},
		{
			"buffer":0,
			"byteLength":192,
			"byteOffset":8028,
			"target":34962
		},
		{
			"buffer":0,
			"byteLength":288,
			"byteOffset":8220,
			"target":34962
		},
		{
			"buffer":0,
			"byteLength":288,
			"byteOffset":8508,
			"target":34962
		},
		{
			"buffer":0,
			"byteLength":192,
			"byteOffset":8796,
			"target":34962
		},
		{
			"buffer":0,
			"byteLength":1344,
			"byteOffset":8988,
			"target":34962
		},
		{
			"buffer":0,
			"byteLength":1344,
			"byteOffset":10332,
			"target":34962
		},
		{
			"buffer":0,
			"byteLength":896,
			"byteOffset":11676,
			"target":34962
		},
		{
			"buffer":0,
			"byteLength":480,
			"byteOffset":12572,
			"target":34963
		},
		{
			"buffer":0,
			"byteLength":576,
			"byteOffset":13052,
			"target":34962
		},
		{
			"buffer":0,
			"byteLength":576,
			"byteOffset":13628,
			"target":34962
		},
		{
			"buffer":0,
			"byteLength":384,
			"byteOffset":14204,
			"target":34962
		},
		{
			"buffer":0,
			"byteLength":168,
			"byteOffset":14588,
			"target":34963
		},
		{
			"buffer":0,
			"byteLength":288,
			"byteOffset":14756,
			"target":34962
		},
		{
			"buffer":0,
			"byteLength":288,
			"byteOffset":15044,
			"target":34962
		},
		{
			"buffer":0,
			"byteLength":192,
			"byteOffset":15332,
			"target":34962
		}
	],
	"samplers":[
		{
			"magFilter":9729,
			"minFilter":9987
		}
	],
	"buffers":[
		{
			"byteLength":15524,
			"uri":"Stage1.bin"
		}
	]
}
