{
	"asset":{
		"generator":"Khronos glTF Blender I/O v4.1.62",
		"version":"2.0"
	},
	"scene":0,
	"scenes":[
		{
			"name":"Scene",
			"nodes":[
				0,
				1,
				2,
				3,
				4,
				5,
				6,
				7
			]
		}
	],
	"nodes":[
		{
			"mesh":0,
			"name":"Start",
			"scale":[
				2.129169464111328,
				3.4391942024230957,
				2.5551681518554688
			],
			"translation":[
				0,
				-0.2888176441192627,
				-0.8142595291137695
			]
		},
		{
			"mesh":1,
			"name":"\u7acb\u65b9\u4f53",
			"scale":[
				5.4415602684021,
				1.1354275941848755,
				2.3502392768859863
			],
			"translation":[
				0,
				0.3218214511871338,
				-15.036192893981934
			]
		},
		{
			"mesh":2,
			"name":"\u7acb\u65b9\u4f53.001",
			"scale":[
				11.813069343566895,
				12.068201065063477,
				9.747577667236328
			],
			"translation":[
				0,
				-3.566682815551758,
				-36.20956039428711
			]
		},
		{
			"mesh":3,
			"name":"\u7acb\u65b9\u4f53.002",
			"scale":[
				17.03526496887207,
				0.5280564427375793,
				17.03526496887207
			],
			"translation":[
				0,
				-6.3753790855407715,
				-35.654945373535156
			]
		},
		{
			"mesh":4,
			"name":"\u7acb\u65b9\u4f53.003",
			"scale":[
				5.72361421585083,
				0.3943585157394409,
				15.760618209838867
			],
			"translation":[
				0,
				-0.1146392822265625,
				-11.112801551818848
			]
		},
		{
			"mesh":5,
			"name":"\u7acb\u65b9\u4f53.004",
			"scale":[
				12.068201065063477,
				12.068201065063477,
				12.068201065063477
			],
			"translation":[
				0,
				-12.337749481201172,
				-64.53938293457031
			]
		},
		{
			"mesh":6,
			"name":"\u7acb\u65b9\u4f53.005",
			"scale":[
				2.841963052749634,
				2.841963052749634,
				3.551962375640869
			],
			"translation":[
				0,
				-3.1139016151428223,
				-49.295963287353516
			]
		},
		{
			"mesh":7,
			"name":"\u7acb\u65b9\u4f53.006",
			"scale":[
				17.03526496887207,
				0.5280564427375793,
				17.03526496887207
			],
			"translation":[
				0,
				-11.551070213317871,
				-64.6983413696289
			]
		}
	],
	"materials":[
		{
			"doubleSided":true,
			"name":"corrugated_iron_02",
			"normalTexture":{
				"index":0
			},
			"pbrMetallicRoughness":{
				"baseColorTexture":{
					"index":1
				},
				"metallicRoughnessTexture":{
					"index":2
				}
			}
		},
		{
			"doubleSided":true,
			"name":"blue_metal_plate",
			"normalTexture":{
				"index":3
			},
			"pbrMetallicRoughness":{
				"baseColorTexture":{
					"index":4
				},
				"metallicFactor":0,
				"metallicRoughnessTexture":{
					"index":5
				}
			}
		},
		{
			"doubleSided":true,
			"name":"Material.001",
			"pbrMetallicRoughness":{
				"baseColorTexture":{
					"index":6
				},
				"metallicFactor":0
			}
		}
	],
	"meshes":[
		{
			"name":"\u7acb\u65b9\u4f53.001",
			"primitives":[
				{
					"attributes":{
						"POSITION":0,
						"NORMAL":1,
						"TEXCOORD_0":2
					},
					"indices":3,
					"material":0
				}
			]
		},
		{
			"name":"\u7acb\u65b9\u4f53.002",
			"primitives":[
				{
					"attributes":{
						"POSITION":4,
						"NORMAL":5,
						"TEXCOORD_0":6
					},
					"indices":7,
					"material":1
				}
			]
		},
		{
			"name":"\u7acb\u65b9\u4f53.007",
			"primitives":[
				{
					"attributes":{
						"POSITION":8,
						"NORMAL":9,
						"TEXCOORD_0":10
					},
					"indices":11,
					"material":0
				}
			]
		},
		{
			"name":"\u7acb\u65b9\u4f53.010",
			"primitives":[
				{
					"attributes":{
						"POSITION":12,
						"NORMAL":13,
						"TEXCOORD_0":14
					},
					"indices":7,
					"material":2
				}
			]
		},
		{
			"name":"\u7acb\u65b9\u4f53.012",
			"primitives":[
				{
					"attributes":{
						"POSITION":15,
						"NORMAL":16,
						"TEXCOORD_0":17
					},
					"indices":7,
					"material":2
				}
			]
		},
		{
			"name":"\u7acb\u65b9\u4f53.016",
			"primitives":[
				{
					"attributes":{
						"POSITION":18,
						"NORMAL":19,
						"TEXCOORD_0":20
					},
					"indices":21,
					"material":0
				}
			]
		},
		{
			"name":"\u7acb\u65b9\u4f53.017",
			"primitives":[
				{
					"attributes":{
						"POSITION":22,
						"NORMAL":23,
						"TEXCOORD_0":24
					},
					"indices":25,
					"material":0
				}
			]
		},
		{
			"name":"\u7acb\u65b9\u4f53.020",
			"primitives":[
				{
					"attributes":{
						"POSITION":26,
						"NORMAL":27,
						"TEXCOORD_0":28
					},
					"indices":7,
					"material":2
				}
			]
		}
	],
	"textures":[
		{
			"sampler":0,
			"source":0
		},
		{
			"sampler":0,
			"source":1
		},
		{
			"sampler":0,
			"source":2
		},
		{
			"sampler":0,
			"source":3
		},
		{
			"sampler":0,
			"source":4
		},
		{
			"sampler":0,
			"source":5
		},
		{
			"sampler":0,
			"source":6
		}
	],
	"images":[
		{
			"mimeType":"image/jpeg",
			"name":"corrugated_iron_02_nor_gl_4k",
			"uri":"corrugated_iron_02_nor_gl_4k.jpg"
		},
		{
			"mimeType":"image/png",
			"name":"corrugated_iron_02_diff_4k",
			"uri":"corrugated_iron_02_diff_4k.png"
		},
		{
			"mimeType":"image/jpeg",
			"name":"corrugated_iron_02_arm_4k",
			"uri":"corrugated_iron_02_arm_4k.jpg"
		},
		{
			"mimeType":"image/jpeg",
			"name":"blue_metal_plate_nor_gl_4k",
			"uri":"blue_metal_plate_nor_gl_4k.jpg"
		},
		{
			"mimeType":"image/png",
			"name":"blue_metal_plate_diff_4k",
			"uri":"blue_metal_plate_diff_4k.png"
		},
		{
			"mimeType":"image/jpeg",
			"name":"blue_metal_plate_arm_4k",
			"uri":"blue_metal_plate_arm_4k.jpg"
		},
		{
			"mimeType":"image/jpeg",
			"name":"grid-futuristic-hud-interface_79145-165",
			"uri":"grid-futuristic-hud-interface_79145-165.jpg"
		}
	],
	"accessors":[
		{
			"bufferView":0,
			"componentType":5126,
			"count":78,
			"max":[
				3,
				2.546921730041504,
				1.8178176879882812
			],
			"min":[
				-3,
				-0.10000000149011612,
				-10.182182312011719
			],
			"type":"VEC3"
		},
		{
			"bufferView":1,
			"componentType":5126,
			"count":78,
			"type":"VEC3"
		},
		{
			"bufferView":2,
			"componentType":5126,
			"count":78,
			"type":"VEC2"
		},
		{
			"bufferView":3,
			"componentType":5123,
			"count":165,
			"type":"SCALAR"
		},
		{
			"bufferView":4,
			"componentType":5126,
			"count":24,
			"max":[
				1,
				1,
				1
			],
			"min":[
				-1,
				-1,
				-1
			],
			"type":"VEC3"
		},
		{
			"bufferView":5,
			"componentType":5126,
			"count":24,
			"type":"VEC3"
		},
		{
			"bufferView":6,
			"componentType":5126,
			"count":24,
			"type":"VEC2"
		},
		{
			"bufferView":7,
			"componentType":5123,
			"count":36,
			"type":"SCALAR"
		},
		{
			"bufferView":8,
			"componentType":5126,
			"count":104,
			"max":[
				1,
				1,
				0.9999957084655762
			],
			"min":[
				-1,
				-0.2997509241104126,
				-1.0000042915344238
			],
			"type":"VEC3"
		},
		{
			"bufferView":9,
			"componentType":5126,
			"count":104,
			"type":"VEC3"
		},
		{
			"bufferView":10,
			"componentType":5126,
			"count":104,
			"type":"VEC2"
		},
		{
			"bufferView":11,
			"componentType":5123,
			"count":228,
			"type":"SCALAR"
		},
		{
			"bufferView":12,
			"componentType":5126,
			"count":24,
			"max":[
				1,
				1,
				1
			],
			"min":[
				-1,
				-1,
				-1
			],
			"type":"VEC3"
		},
		{
			"bufferView":13,
			"componentType":5126,
			"count":24,
			"type":"VEC3"
		},
		{
			"bufferView":14,
			"componentType":5126,
			"count":24,
			"type":"VEC2"
		},
		{
			"bufferView":15,
			"componentType":5126,
			"count":24,
			"max":[
				1,
				1,
				1
			],
			"min":[
				-1,
				-1,
				-1
			],
			"type":"VEC3"
		},
		{
			"bufferView":16,
			"componentType":5126,
			"count":24,
			"type":"VEC3"
		},
		{
			"bufferView":17,
			"componentType":5126,
			"count":24,
			"type":"VEC2"
		},
		{
			"bufferView":18,
			"componentType":5126,
			"count":112,
			"max":[
				1,
				1,
				0.9999957084655762
			],
			"min":[
				-1,
				-0.2997509241104126,
				-1.0000042915344238
			],
			"type":"VEC3"
		},
		{
			"bufferView":19,
			"componentType":5126,
			"count":112,
			"type":"VEC3"
		},
		{
			"bufferView":20,
			"componentType":5126,
			"count":112,
			"type":"VEC2"
		},
		{
			"bufferView":21,
			"componentType":5123,
			"count":240,
			"type":"SCALAR"
		},
		{
			"bufferView":22,
			"componentType":5126,
			"count":48,
			"max":[
				0.9999999403953552,
				0.9999999403953552,
				0.9999980330467224
			],
			"min":[
				-0.9999999403953552,
				-0.9999999403953552,
				-1.0000019073486328
			],
			"type":"VEC3"
		},
		{
			"bufferView":23,
			"componentType":5126,
			"count":48,
			"type":"VEC3"
		},
		{
			"bufferView":24,
			"componentType":5126,
			"count":48,
			"type":"VEC2"
		},
		{
			"bufferView":25,
			"componentType":5123,
			"count":84,
			"type":"SCALAR"
		},
		{
			"bufferView":26,
			"componentType":5126,
			"count":24,
			"max":[
				1,
				1,
				1
			],
			"min":[
				-1,
				-1,
				-1
			],
			"type":"VEC3"
		},
		{
			"bufferView":27,
			"componentType":5126,
			"count":24,
			"type":"VEC3"
		},
		{
			"bufferView":28,
			"componentType":5126,
			"count":24,
			"type":"VEC2"
		}
	],
	"bufferViews":[
		{
			"buffer":0,
			"byteLength":936,
			"byteOffset":0,
			"target":34962
		},
		{
			"buffer":0,
			"byteLength":936,
			"byteOffset":936,
			"target":34962
		},
		{
			"buffer":0,
			"byteLength":624,
			"byteOffset":1872,
			"target":34962
		},
		{
			"buffer":0,
			"byteLength":330,
			"byteOffset":2496,
			"target":34963
		},
		{
			"buffer":0,
			"byteLength":288,
			"byteOffset":2828,
			"target":34962
		},
		{
			"buffer":0,
			"byteLength":288,
			"byteOffset":3116,
			"target":34962
		},
		{
			"buffer":0,
			"byteLength":192,
			"byteOffset":3404,
			"target":34962
		},
		{
			"buffer":0,
			"byteLength":72,
			"byteOffset":3596,
			"target":34963
		},
		{
			"buffer":0,
			"byteLength":1248,
			"byteOffset":3668,
			"target":34962
		},
		{
			"buffer":0,
			"byteLength":1248,
			"byteOffset":4916,
			"target":34962
		},
		{
			"buffer":0,
			"byteLength":832,
			"byteOffset":6164,
			"target":34962
		},
		{
			"buffer":0,
			"byteLength":456,
			"byteOffset":6996,
			"target":34963
		},
		{
			"buffer":0,
			"byteLength":288,
			"byteOffset":7452,
			"target":34962
		},
		{
			"buffer":0,
			"byteLength":288,
			"byteOffset":7740,
			"target":34962
		},
		{
			"buffer":0,
			"byteLength":192,
			"byteOffset":8028,
			"target":34962
		},
		{
			"buffer":0,
			"byteLength":288,
			"byteOffset":8220,
			"target":34962
		},
		{
			"buffer":0,
			"byteLength":288,
			"byteOffset":8508,
			"target":34962
		},
		{
			"buffer":0,
			"byteLength":192,
			"byteOffset":8796,
			"target":34962
		},
		{
			"buffer":0,
			"byteLength":1344,
			"byteOffset":8988,
			"target":34962
		},
		{
			"buffer":0,
			"byteLength":1344,
			"byteOffset":10332,
			"target":34962
		},
		{
			"buffer":0,
			"byteLength":896,
			"byteOffset":11676,
			"target":34962
		},
		{
			"buffer":0,
			"byteLength":480,
			"byteOffset":12572,
			"target":34963
		},
		{
			"buffer":0,
			"byteLength":576,
			"byteOffset":13052,
			"target":34962
		},
		{
			"buffer":0,
			"byteLength":576,
			"byteOffset":13628,
			"target":34962
		},
		{
			"buffer":0,
			"byteLength":384,
			"byteOffset":14204,
			"target":34962
		},
		{
			"buffer":0,
			"byteLength":168,
			"byteOffset":14588,
			"target":34963
		},
		{
			"buffer":0,
			"byteLength":288,
			"byteOffset":14756,
			"target":34962
		},
		{
			"buffer":0,
			"byteLength":288,
			"byteOffset":15044,
			"target":34962
		},
		{
			"buffer":0,
			"byteLength":192,
			"byteOffset":15332,
			"target":34962
		}
	],
	"samplers":[
		{
			"magFilter":9729,
			"minFilter":9987
		}
	],
	"buffers":[
		{
			"byteLength":15524,
			"uri":"test.bin"
		}
	]
}
