{
	"asset":{
		"generator":"Khronos glTF Blender I/O v4.1.62",
		"version":"2.0"
	},
	"scene":0,
	"scenes":[
		{
			"name":"Scene",
			"nodes":[
				1
			]
		}
	],
	"nodes":[
		{
			"mesh":0,
			"name":"Body_Back",
			"scale":[
				2,
				2,
				2
			],
			"translation":[
				-0.00040843585156835616,
				0.28268539905548096,
				0.48349565267562866
			]
		},
		{
			"children":[
				0
			],
			"mesh":1,
			"name":"Body_Front"
		}
	],
	"materials":[
		{
			"doubleSided":true,
			"name":"Body_Back",
			"normalTexture":{
				"index":0
			},
			"pbrMetallicRoughness":{
				"baseColorTexture":{
					"index":1
				},
				"metallicFactor":0,
				"roughnessFactor":0.5
			}
		},
		{
			"doubleSided":true,
			"emissiveTexture":{
				"index":2
			},
			"name":"Body_Front",
			"normalTexture":{
				"index":3
			},
			"pbrMetallicRoughness":{
				"baseColorTexture":{
					"index":4
				},
				"metallicFactor":0,
				"roughnessFactor":0.5
			}
		}
	],
	"meshes":[
		{
			"name":"Cylinder.001",
			"primitives":[
				{
					"attributes":{
						"POSITION":0,
						"NORMAL":1,
						"TEXCOORD_0":2
					},
					"indices":3,
					"material":0
				}
			]
		},
		{
			"name":"Cylinder.031",
			"primitives":[
				{
					"attributes":{
						"POSITION":4,
						"NORMAL":5,
						"TEXCOORD_0":6
					},
					"indices":7,
					"material":1
				}
			]
		}
	],
	"textures":[
		{
			"sampler":0,
			"source":0
		},
		{
			"sampler":0,
			"source":1
		},
		{
			"sampler":0,
			"source":2
		},
		{
			"sampler":0,
			"source":3
		},
		{
			"sampler":0,
			"source":2
		}
	],
	"images":[
		{
			"mimeType":"image/png",
			"name":"Robot_Scout_HyperX_Low_Body_Back_Normal_Red",
			"uri":"Robot_Scout_HyperX_Low_Body_Back_Normal_Red.png"
		},
		{
			"mimeType":"image/png",
			"name":"Robot_Scout_HyperX_Low_Body_Back_Emission",
			"uri":"Robot_Scout_HyperX_Low_Body_Back_Emission.png"
		},
		{
			"mimeType":"image/png",
			"name":"Robot_Scout_HyperX_Low_Body_Front_AlbedoTransparency_Red",
			"uri":"Robot_Scout_HyperX_Low_Body_Front_AlbedoTransparency_Red.png"
		},
		{
			"mimeType":"image/png",
			"name":"Robot_Scout_HyperX_Low_Body_Front_Normal_Red",
			"uri":"Robot_Scout_HyperX_Low_Body_Front_Normal_Red.png"
		}
	],
	"accessors":[
		{
			"bufferView":0,
			"componentType":5126,
			"count":845,
			"max":[
				0.4404236972332001,
				0.5742305517196655,
				0.6264101266860962
			],
			"min":[
				-0.4391500651836395,
				-0.4537409245967865,
				-0.3420553207397461
			],
			"type":"VEC3"
		},
		{
			"bufferView":1,
			"componentType":5126,
			"count":845,
			"type":"VEC3"
		},
		{
			"bufferView":2,
			"componentType":5126,
			"count":845,
			"type":"VEC2"
		},
		{
			"bufferView":3,
			"componentType":5123,
			"count":2154,
			"type":"SCALAR"
		},
		{
			"bufferView":4,
			"componentType":5126,
			"count":610,
			"max":[
				0.790259063243866,
				1.4801093339920044,
				1.891280174255371
			],
			"min":[
				-0.7899991273880005,
				-0.8291457891464233,
				-1.069344162940979
			],
			"type":"VEC3"
		},
		{
			"bufferView":5,
			"componentType":5126,
			"count":610,
			"type":"VEC3"
		},
		{
			"bufferView":6,
			"componentType":5126,
			"count":610,
			"type":"VEC2"
		},
		{
			"bufferView":7,
			"componentType":5123,
			"count":2154,
			"type":"SCALAR"
		}
	],
	"bufferViews":[
		{
			"buffer":0,
			"byteLength":10140,
			"byteOffset":0,
			"target":34962
		},
		{
			"buffer":0,
			"byteLength":10140,
			"byteOffset":10140,
			"target":34962
		},
		{
			"buffer":0,
			"byteLength":6760,
			"byteOffset":20280,
			"target":34962
		},
		{
			"buffer":0,
			"byteLength":4308,
			"byteOffset":27040,
			"target":34963
		},
		{
			"buffer":0,
			"byteLength":7320,
			"byteOffset":31348,
			"target":34962
		},
		{
			"buffer":0,
			"byteLength":7320,
			"byteOffset":38668,
			"target":34962
		},
		{
			"buffer":0,
			"byteLength":4880,
			"byteOffset":45988,
			"target":34962
		},
		{
			"buffer":0,
			"byteLength":4308,
			"byteOffset":50868,
			"target":34963
		}
	],
	"samplers":[
		{
			"magFilter":9729,
			"minFilter":9987
		}
	],
	"buffers":[
		{
			"byteLength":55176,
			"uri":"Expdrone.bin"
		}
	]
}
