{
	"asset":{
		"generator":"Khronos glTF Blender I/O v4.1.62",
		"version":"2.0"
	},
	"extensionsUsed":[
		"KHR_materials_specular"
	],
	"scene":0,
	"scenes":[
		{
			"name":"Scene",
			"nodes":[
				3
			]
		}
	],
	"nodes":[
		{
			"name":"APbattery",
			"translation":[
				0,
				0.6000001430511475,
				0.06465684622526169
			]
		},
		{
			"mesh":0,
			"name":"COL01",
			"scale":[
				1,
				0.3916129171848297,
				1.3343837261199951
			],
			"translation":[
				0,
				0.054314225912094116,
				-0.18496261537075043
			]
		},
		{
			"mesh":1,
			"name":"COL02",
			"scale":[
				0.5953417420387268,
				0.3311956524848938,
				0.5402200222015381
			],
			"translation":[
				0,
				0.7398124933242798,
				0.04421916604042053
			]
		},
		{
			"children":[
				0,
				1,
				2
			],
			"mesh":2,
			"name":"Dreadnaught",
			"translation":[
				0,
				0.29999998211860657,
				0
			]
		}
	],
	"animations":[
		{
			"channels":[
				{
					"sampler":0,
					"target":{
						"node":3,
						"path":"translation"
					}
				},
				{
					"sampler":1,
					"target":{
						"node":3,
						"path":"rotation"
					}
				},
				{
					"sampler":2,
					"target":{
						"node":3,
						"path":"scale"
					}
				}
			],
			"name":"Idle",
			"samplers":[
				{
					"input":12,
					"interpolation":"LINEAR",
					"output":13
				},
				{
					"input":14,
					"interpolation":"STEP",
					"output":15
				},
				{
					"input":14,
					"interpolation":"STEP",
					"output":16
				}
			]
		},
		{
			"channels":[
				{
					"sampler":0,
					"target":{
						"node":3,
						"path":"translation"
					}
				},
				{
					"sampler":1,
					"target":{
						"node":3,
						"path":"rotation"
					}
				},
				{
					"sampler":2,
					"target":{
						"node":3,
						"path":"scale"
					}
				}
			],
			"name":"Stop",
			"samplers":[
				{
					"input":17,
					"interpolation":"STEP",
					"output":18
				},
				{
					"input":17,
					"interpolation":"STEP",
					"output":19
				},
				{
					"input":17,
					"interpolation":"STEP",
					"output":20
				}
			]
		}
	],
	"materials":[
		{
			"doubleSided":true,
			"extensions":{
				"KHR_materials_specular":{
					"specularFactor":0
				}
			},
			"name":"\u30de\u30c6\u30ea\u30a2\u30eb",
			"normalTexture":{
				"index":0,
				"scale":0.5
			},
			"pbrMetallicRoughness":{
				"baseColorTexture":{
					"index":1
				},
				"roughnessFactor":0.858578622341156
			}
		}
	],
	"meshes":[
		{
			"name":"\u7acb\u65b9\u4f53",
			"primitives":[
				{
					"attributes":{
						"POSITION":0,
						"NORMAL":1,
						"TEXCOORD_0":2
					},
					"indices":3
				}
			]
		},
		{
			"name":"\u7acb\u65b9\u4f53.001",
			"primitives":[
				{
					"attributes":{
						"POSITION":4,
						"NORMAL":5,
						"TEXCOORD_0":6
					},
					"indices":7
				}
			]
		},
		{
			"name":"\u30e1\u30c3\u30b7\u30e5.009",
			"primitives":[
				{
					"attributes":{
						"POSITION":8,
						"NORMAL":9,
						"TEXCOORD_0":10
					},
					"indices":11,
					"material":0
				}
			]
		}
	],
	"textures":[
		{
			"sampler":0,
			"source":0
		},
		{
			"sampler":0,
			"source":1
		}
	],
	"images":[
		{
			"mimeType":"image/png",
			"name":"Dreadnaught01normal",
			"uri":"Dreadnaught01normal.png"
		},
		{
			"mimeType":"image/png",
			"name":"Dreadnaught01",
			"uri":"Dreadnaught01.png"
		}
	],
	"accessors":[
		{
			"bufferView":0,
			"componentType":5126,
			"count":24,
			"max":[
				1,
				1,
				1
			],
			"min":[
				-1,
				-1,
				-1
			],
			"type":"VEC3"
		},
		{
			"bufferView":1,
			"componentType":5126,
			"count":24,
			"type":"VEC3"
		},
		{
			"bufferView":2,
			"componentType":5126,
			"count":24,
			"type":"VEC2"
		},
		{
			"bufferView":3,
			"componentType":5123,
			"count":36,
			"type":"SCALAR"
		},
		{
			"bufferView":4,
			"componentType":5126,
			"count":20,
			"max":[
				1,
				1,
				1
			],
			"min":[
				-1,
				-1,
				-1
			],
			"type":"VEC3"
		},
		{
			"bufferView":5,
			"componentType":5126,
			"count":20,
			"type":"VEC3"
		},
		{
			"bufferView":6,
			"componentType":5126,
			"count":20,
			"type":"VEC2"
		},
		{
			"bufferView":7,
			"componentType":5123,
			"count":30,
			"type":"SCALAR"
		},
		{
			"bufferView":8,
			"componentType":5126,
			"count":865,
			"max":[
				1.1590025424957275,
				0.6355011463165283,
				1.1449164152145386
			],
			"min":[
				-1.1590090990066528,
				-0.32103896141052246,
				-1.5334933996200562
			],
			"type":"VEC3"
		},
		{
			"bufferView":9,
			"componentType":5126,
			"count":865,
			"type":"VEC3"
		},
		{
			"bufferView":10,
			"componentType":5126,
			"count":865,
			"type":"VEC2"
		},
		{
			"bufferView":11,
			"componentType":5123,
			"count":1440,
			"type":"SCALAR"
		},
		{
			"bufferView":12,
			"componentType":5126,
			"count":120,
			"max":[
				4
			],
			"min":[
				0.03333333333333333
			],
			"type":"SCALAR"
		},
		{
			"bufferView":13,
			"componentType":5126,
			"count":120,
			"type":"VEC3"
		},
		{
			"bufferView":14,
			"componentType":5126,
			"count":2,
			"max":[
				4
			],
			"min":[
				0.03333333333333333
			],
			"type":"SCALAR"
		},
		{
			"bufferView":15,
			"componentType":5126,
			"count":2,
			"type":"VEC4"
		},
		{
			"bufferView":16,
			"componentType":5126,
			"count":2,
			"type":"VEC3"
		},
		{
			"bufferView":17,
			"componentType":5126,
			"count":2,
			"max":[
				0.06666666666666667
			],
			"min":[
				0.03333333333333333
			],
			"type":"SCALAR"
		},
		{
			"bufferView":18,
			"componentType":5126,
			"count":2,
			"type":"VEC3"
		},
		{
			"bufferView":19,
			"componentType":5126,
			"count":2,
			"type":"VEC4"
		},
		{
			"bufferView":20,
			"componentType":5126,
			"count":2,
			"type":"VEC3"
		}
	],
	"bufferViews":[
		{
			"buffer":0,
			"byteLength":288,
			"byteOffset":0,
			"target":34962
		},
		{
			"buffer":0,
			"byteLength":288,
			"byteOffset":288,
			"target":34962
		},
		{
			"buffer":0,
			"byteLength":192,
			"byteOffset":576,
			"target":34962
		},
		{
			"buffer":0,
			"byteLength":72,
			"byteOffset":768,
			"target":34963
		},
		{
			"buffer":0,
			"byteLength":240,
			"byteOffset":840,
			"target":34962
		},
		{
			"buffer":0,
			"byteLength":240,
			"byteOffset":1080,
			"target":34962
		},
		{
			"buffer":0,
			"byteLength":160,
			"byteOffset":1320,
			"target":34962
		},
		{
			"buffer":0,
			"byteLength":60,
			"byteOffset":1480,
			"target":34963
		},
		{
			"buffer":0,
			"byteLength":10380,
			"byteOffset":1540,
			"target":34962
		},
		{
			"buffer":0,
			"byteLength":10380,
			"byteOffset":11920,
			"target":34962
		},
		{
			"buffer":0,
			"byteLength":6920,
			"byteOffset":22300,
			"target":34962
		},
		{
			"buffer":0,
			"byteLength":2880,
			"byteOffset":29220,
			"target":34963
		},
		{
			"buffer":0,
			"byteLength":480,
			"byteOffset":32100
		},
		{
			"buffer":0,
			"byteLength":1440,
			"byteOffset":32580
		},
		{
			"buffer":0,
			"byteLength":8,
			"byteOffset":34020
		},
		{
			"buffer":0,
			"byteLength":32,
			"byteOffset":34028
		},
		{
			"buffer":0,
			"byteLength":24,
			"byteOffset":34060
		},
		{
			"buffer":0,
			"byteLength":8,
			"byteOffset":34084
		},
		{
			"buffer":0,
			"byteLength":24,
			"byteOffset":34092
		},
		{
			"buffer":0,
			"byteLength":32,
			"byteOffset":34116
		},
		{
			"buffer":0,
			"byteLength":24,
			"byteOffset":34148
		}
	],
	"samplers":[
		{
			"magFilter":9729,
			"minFilter":9987
		}
	],
	"buffers":[
		{
			"byteLength":34172,
			"uri":"Player_main.bin"
		}
	]
}
