{
	"asset":{
		"generator":"Khronos glTF Blender I/O v4.1.62",
		"version":"2.0"
	},
	"extensionsUsed":[
		"KHR_materials_specular"
	],
	"scene":0,
	"scenes":[
		{
			"name":"Scene",
			"nodes":[
				1
			]
		}
	],
	"nodes":[
		{
			"name":"APbattery",
			"translation":[
				0,
				0.6000001430511475,
				0.06465684622526169
			]
		},
		{
			"children":[
				0
			],
			"mesh":0,
			"name":"Dreadnaught",
			"translation":[
				0,
				0.29999998211860657,
				0
			]
		}
	],
	"animations":[
		{
			"channels":[
				{
					"sampler":0,
					"target":{
						"node":1,
						"path":"translation"
					}
				},
				{
					"sampler":1,
					"target":{
						"node":1,
						"path":"rotation"
					}
				},
				{
					"sampler":2,
					"target":{
						"node":1,
						"path":"scale"
					}
				}
			],
			"name":"Idle",
			"samplers":[
				{
					"input":4,
					"interpolation":"LINEAR",
					"output":5
				},
				{
					"input":6,
					"interpolation":"STEP",
					"output":7
				},
				{
					"input":6,
					"interpolation":"STEP",
					"output":8
				}
			]
		},
		{
			"channels":[
				{
					"sampler":0,
					"target":{
						"node":1,
						"path":"translation"
					}
				},
				{
					"sampler":1,
					"target":{
						"node":1,
						"path":"rotation"
					}
				},
				{
					"sampler":2,
					"target":{
						"node":1,
						"path":"scale"
					}
				}
			],
			"name":"Stop",
			"samplers":[
				{
					"input":9,
					"interpolation":"STEP",
					"output":10
				},
				{
					"input":9,
					"interpolation":"STEP",
					"output":11
				},
				{
					"input":9,
					"interpolation":"STEP",
					"output":12
				}
			]
		}
	],
	"materials":[
		{
			"doubleSided":true,
			"extensions":{
				"KHR_materials_specular":{
					"specularFactor":0
				}
			},
			"name":"\u30de\u30c6\u30ea\u30a2\u30eb",
			"normalTexture":{
				"index":0,
				"scale":0.5
			},
			"pbrMetallicRoughness":{
				"baseColorTexture":{
					"index":1
				},
				"roughnessFactor":0.858578622341156
			}
		}
	],
	"meshes":[
		{
			"name":"\u30e1\u30c3\u30b7\u30e5.009",
			"primitives":[
				{
					"attributes":{
						"POSITION":0,
						"NORMAL":1,
						"TEXCOORD_0":2
					},
					"indices":3,
					"material":0
				}
			]
		}
	],
	"textures":[
		{
			"sampler":0,
			"source":0
		},
		{
			"sampler":0,
			"source":1
		}
	],
	"images":[
		{
			"mimeType":"image/png",
			"name":"Dreadnaught01normal",
			"uri":"Dreadnaught01normal.png"
		},
		{
			"mimeType":"image/png",
			"name":"Dreadnaught01",
			"uri":"Dreadnaught01.png"
		}
	],
	"accessors":[
		{
			"bufferView":0,
			"componentType":5126,
			"count":865,
			"max":[
				1.1590025424957275,
				0.6355011463165283,
				1.1449164152145386
			],
			"min":[
				-1.1590090990066528,
				-0.32103896141052246,
				-1.5334933996200562
			],
			"type":"VEC3"
		},
		{
			"bufferView":1,
			"componentType":5126,
			"count":865,
			"type":"VEC3"
		},
		{
			"bufferView":2,
			"componentType":5126,
			"count":865,
			"type":"VEC2"
		},
		{
			"bufferView":3,
			"componentType":5123,
			"count":1440,
			"type":"SCALAR"
		},
		{
			"bufferView":4,
			"componentType":5126,
			"count":120,
			"max":[
				4
			],
			"min":[
				0.03333333333333333
			],
			"type":"SCALAR"
		},
		{
			"bufferView":5,
			"componentType":5126,
			"count":120,
			"type":"VEC3"
		},
		{
			"bufferView":6,
			"componentType":5126,
			"count":2,
			"max":[
				4
			],
			"min":[
				0.03333333333333333
			],
			"type":"SCALAR"
		},
		{
			"bufferView":7,
			"componentType":5126,
			"count":2,
			"type":"VEC4"
		},
		{
			"bufferView":8,
			"componentType":5126,
			"count":2,
			"type":"VEC3"
		},
		{
			"bufferView":9,
			"componentType":5126,
			"count":2,
			"max":[
				0.06666666666666667
			],
			"min":[
				0.03333333333333333
			],
			"type":"SCALAR"
		},
		{
			"bufferView":10,
			"componentType":5126,
			"count":2,
			"type":"VEC3"
		},
		{
			"bufferView":11,
			"componentType":5126,
			"count":2,
			"type":"VEC4"
		},
		{
			"bufferView":12,
			"componentType":5126,
			"count":2,
			"type":"VEC3"
		}
	],
	"bufferViews":[
		{
			"buffer":0,
			"byteLength":10380,
			"byteOffset":0,
			"target":34962
		},
		{
			"buffer":0,
			"byteLength":10380,
			"byteOffset":10380,
			"target":34962
		},
		{
			"buffer":0,
			"byteLength":6920,
			"byteOffset":20760,
			"target":34962
		},
		{
			"buffer":0,
			"byteLength":2880,
			"byteOffset":27680,
			"target":34963
		},
		{
			"buffer":0,
			"byteLength":480,
			"byteOffset":30560
		},
		{
			"buffer":0,
			"byteLength":1440,
			"byteOffset":31040
		},
		{
			"buffer":0,
			"byteLength":8,
			"byteOffset":32480
		},
		{
			"buffer":0,
			"byteLength":32,
			"byteOffset":32488
		},
		{
			"buffer":0,
			"byteLength":24,
			"byteOffset":32520
		},
		{
			"buffer":0,
			"byteLength":8,
			"byteOffset":32544
		},
		{
			"buffer":0,
			"byteLength":24,
			"byteOffset":32552
		},
		{
			"buffer":0,
			"byteLength":32,
			"byteOffset":32576
		},
		{
			"buffer":0,
			"byteLength":24,
			"byteOffset":32608
		}
	],
	"samplers":[
		{
			"magFilter":9729,
			"minFilter":9987
		}
	],
	"buffers":[
		{
			"byteLength":32632,
			"uri":"Player_main.bin"
		}
	]
}
