{
	"asset":{
		"generator":"Khronos glTF Blender I/O v4.1.62",
		"version":"2.0"
	},
	"extensionsUsed":[
		"KHR_materials_specular"
	],
	"scene":0,
	"scenes":[
		{
			"name":"Scene",
			"nodes":[
				11
			]
		}
	],
	"nodes":[
		{
			"name":"APc_muzzle",
			"translation":[
				0,
				0,
				-0.7213543057441711
			]
		},
		{
			"children":[
				0
			],
			"mesh":0,
			"name":"Dreadnaught-cannon"
		},
		{
			"children":[
				1
			],
			"name":"APcannon",
			"translation":[
				-0.0023263993207365274,
				0.013341784477233887,
				-0.20369593799114227
			]
		},
		{
			"name":"APm_muzzle",
			"translation":[
				0.2467847764492035,
				0.012330830097198486,
				-0.5703014731407166
			]
		},
		{
			"mesh":1,
			"name":"Dreadnaught-minigun-barrels",
			"translation":[
				0.2451665997505188,
				-0.014623403549194336,
				-0.15912389755249023
			]
		},
		{
			"children":[
				3,
				4
			],
			"mesh":2,
			"name":"Dreadnaught-minigun",
			"translation":[
				0.00018012523651123047,
				0.0042018890380859375,
				0.0005411207675933838
			]
		},
		{
			"children":[
				5
			],
			"name":"APminigun",
			"translation":[
				0.03603093698620796,
				0.14036476612091064,
				0.07589587569236755
			]
		},
		{
			"mesh":3,
			"name":"Dreadnaught-Nuke-tube",
			"translation":[
				-0.000315643846988678,
				0.004122316837310791,
				0.0003977566957473755
			]
		},
		{
			"children":[
				7
			],
			"name":"APNuke-tube",
			"translation":[
				-0.06313025206327438,
				0.12445962429046631,
				0.04722254350781441
			]
		},
		{
			"children":[
				2,
				6,
				8
			],
			"mesh":4,
			"name":"Dreadnaught-battery",
			"translation":[
				0,
				0.0034999847412109375,
				0
			]
		},
		{
			"children":[
				9
			],
			"name":"APbattery",
			"translation":[
				0,
				0.4500000476837158,
				0.032328423112630844
			]
		},
		{
			"children":[
				10
			],
			"mesh":5,
			"name":"Dreadnaught"
		}
	],
	"animations":[
		{
			"channels":[
				{
					"sampler":0,
					"target":{
						"node":11,
						"path":"translation"
					}
				},
				{
					"sampler":1,
					"target":{
						"node":11,
						"path":"rotation"
					}
				},
				{
					"sampler":2,
					"target":{
						"node":11,
						"path":"scale"
					}
				}
			],
			"name":"Idle",
			"samplers":[
				{
					"input":24,
					"interpolation":"LINEAR",
					"output":25
				},
				{
					"input":26,
					"interpolation":"STEP",
					"output":27
				},
				{
					"input":26,
					"interpolation":"STEP",
					"output":28
				}
			]
		},
		{
			"channels":[
				{
					"sampler":0,
					"target":{
						"node":11,
						"path":"translation"
					}
				},
				{
					"sampler":1,
					"target":{
						"node":11,
						"path":"rotation"
					}
				},
				{
					"sampler":2,
					"target":{
						"node":11,
						"path":"scale"
					}
				}
			],
			"name":"Stop",
			"samplers":[
				{
					"input":29,
					"interpolation":"STEP",
					"output":30
				},
				{
					"input":29,
					"interpolation":"STEP",
					"output":31
				},
				{
					"input":29,
					"interpolation":"STEP",
					"output":32
				}
			]
		}
	],
	"materials":[
		{
			"doubleSided":true,
			"extensions":{
				"KHR_materials_specular":{
					"specularFactor":0
				}
			},
			"name":"\u30de\u30c6\u30ea\u30a2\u30eb",
			"normalTexture":{
				"index":0,
				"scale":0.5
			},
			"pbrMetallicRoughness":{
				"baseColorTexture":{
					"index":1
				},
				"roughnessFactor":0.858578622341156
			}
		}
	],
	"meshes":[
		{
			"name":"\u30e1\u30c3\u30b7\u30e5.013",
			"primitives":[
				{
					"attributes":{
						"POSITION":0,
						"NORMAL":1,
						"TEXCOORD_0":2
					},
					"indices":3,
					"material":0
				}
			]
		},
		{
			"name":"\u30e1\u30c3\u30b7\u30e5.011",
			"primitives":[
				{
					"attributes":{
						"POSITION":4,
						"NORMAL":5,
						"TEXCOORD_0":6
					},
					"indices":7,
					"material":0
				}
			]
		},
		{
			"name":"\u30e1\u30c3\u30b7\u30e5.012",
			"primitives":[
				{
					"attributes":{
						"POSITION":8,
						"NORMAL":9,
						"TEXCOORD_0":10
					},
					"indices":11,
					"material":0
				}
			]
		},
		{
			"name":"\u30e1\u30c3\u30b7\u30e5.010",
			"primitives":[
				{
					"attributes":{
						"POSITION":12,
						"NORMAL":13,
						"TEXCOORD_0":14
					},
					"indices":15,
					"material":0
				}
			]
		},
		{
			"name":"\u30e1\u30c3\u30b7\u30e5.001",
			"primitives":[
				{
					"attributes":{
						"POSITION":16,
						"NORMAL":17,
						"TEXCOORD_0":18
					},
					"indices":19,
					"material":0
				}
			]
		},
		{
			"name":"\u30e1\u30c3\u30b7\u30e5.009",
			"primitives":[
				{
					"attributes":{
						"POSITION":20,
						"NORMAL":21,
						"TEXCOORD_0":22
					},
					"indices":23,
					"material":0
				}
			]
		}
	],
	"textures":[
		{
			"sampler":0,
			"source":0
		},
		{
			"sampler":0,
			"source":1
		}
	],
	"images":[
		{
			"mimeType":"image/png",
			"name":"Dreadnaught01normal",
			"uri":"Dreadnaught01normal.png"
		},
		{
			"mimeType":"image/png",
			"name":"Dreadnaught01",
			"uri":"Dreadnaught01.png"
		}
	],
	"accessors":[
		{
			"bufferView":0,
			"componentType":5126,
			"count":272,
			"max":[
				0.1567111760377884,
				0.11850517988204956,
				0.03896622732281685
			],
			"min":[
				-0.15205663442611694,
				-0.11347249895334244,
				-0.7178985476493835
			],
			"type":"VEC3"
		},
		{
			"bufferView":1,
			"componentType":5126,
			"count":272,
			"type":"VEC3"
		},
		{
			"bufferView":2,
			"componentType":5126,
			"count":272,
			"type":"VEC2"
		},
		{
			"bufferView":3,
			"componentType":5123,
			"count":420,
			"type":"SCALAR"
		},
		{
			"bufferView":4,
			"componentType":5126,
			"count":90,
			"max":[
				0.07858569175004959,
				0.0732450932264328,
				0.006860367953777313
			],
			"min":[
				-0.076928049325943,
				-0.07465717941522598,
				-0.40879976749420166
			],
			"type":"VEC3"
		},
		{
			"bufferView":5,
			"componentType":5126,
			"count":90,
			"type":"VEC3"
		},
		{
			"bufferView":6,
			"componentType":5126,
			"count":90,
			"type":"VEC2"
		},
		{
			"bufferView":7,
			"componentType":5123,
			"count":144,
			"type":"SCALAR"
		},
		{
			"bufferView":8,
			"componentType":5126,
			"count":244,
			"max":[
				0.35688963532447815,
				0.10653628408908844,
				0.2147541493177414
			],
			"min":[
				-0.031722575426101685,
				-0.11873170733451843,
				-0.49906235933303833
			],
			"type":"VEC3"
		},
		{
			"bufferView":9,
			"componentType":5126,
			"count":244,
			"type":"VEC3"
		},
		{
			"bufferView":10,
			"componentType":5126,
			"count":244,
			"type":"VEC2"
		},
		{
			"bufferView":11,
			"componentType":5123,
			"count":480,
			"type":"SCALAR"
		},
		{
			"bufferView":12,
			"componentType":5126,
			"count":146,
			"max":[
				0.04370998591184616,
				0.10228665173053741,
				0.16317446529865265
			],
			"min":[
				-0.33910176157951355,
				-0.21179281175136566,
				-0.0672903060913086
			],
			"type":"VEC3"
		},
		{
			"bufferView":13,
			"componentType":5126,
			"count":146,
			"type":"VEC3"
		},
		{
			"bufferView":14,
			"componentType":5126,
			"count":146,
			"type":"VEC2"
		},
		{
			"bufferView":15,
			"componentType":5123,
			"count":240,
			"type":"SCALAR"
		},
		{
			"bufferView":16,
			"componentType":5126,
			"count":129,
			"max":[
				0.27541589736938477,
				0.1602107435464859,
				0.48674172163009644
			],
			"min":[
				-0.2754133939743042,
				-0.11747945100069046,
				-0.2908307909965515
			],
			"type":"VEC3"
		},
		{
			"bufferView":17,
			"componentType":5126,
			"count":129,
			"type":"VEC3"
		},
		{
			"bufferView":18,
			"componentType":5126,
			"count":129,
			"type":"VEC2"
		},
		{
			"bufferView":19,
			"componentType":5123,
			"count":204,
			"type":"SCALAR"
		},
		{
			"bufferView":20,
			"componentType":5126,
			"count":865,
			"max":[
				0.5795012712478638,
				0.46775057911872864,
				0.5724582076072693
			],
			"min":[
				-0.5795045495033264,
				-0.010519474744796753,
				-0.7667466998100281
			],
			"type":"VEC3"
		},
		{
			"bufferView":21,
			"componentType":5126,
			"count":865,
			"type":"VEC3"
		},
		{
			"bufferView":22,
			"componentType":5126,
			"count":865,
			"type":"VEC2"
		},
		{
			"bufferView":23,
			"componentType":5123,
			"count":1440,
			"type":"SCALAR"
		},
		{
			"bufferView":24,
			"componentType":5126,
			"count":120,
			"max":[
				4
			],
			"min":[
				0.03333333333333333
			],
			"type":"SCALAR"
		},
		{
			"bufferView":25,
			"componentType":5126,
			"count":120,
			"type":"VEC3"
		},
		{
			"bufferView":26,
			"componentType":5126,
			"count":2,
			"max":[
				4
			],
			"min":[
				0.03333333333333333
			],
			"type":"SCALAR"
		},
		{
			"bufferView":27,
			"componentType":5126,
			"count":2,
			"type":"VEC4"
		},
		{
			"bufferView":28,
			"componentType":5126,
			"count":2,
			"type":"VEC3"
		},
		{
			"bufferView":29,
			"componentType":5126,
			"count":2,
			"max":[
				0.06666666666666667
			],
			"min":[
				0.03333333333333333
			],
			"type":"SCALAR"
		},
		{
			"bufferView":30,
			"componentType":5126,
			"count":2,
			"type":"VEC3"
		},
		{
			"bufferView":31,
			"componentType":5126,
			"count":2,
			"type":"VEC4"
		},
		{
			"bufferView":32,
			"componentType":5126,
			"count":2,
			"type":"VEC3"
		}
	],
	"bufferViews":[
		{
			"buffer":0,
			"byteLength":3264,
			"byteOffset":0,
			"target":34962
		},
		{
			"buffer":0,
			"byteLength":3264,
			"byteOffset":3264,
			"target":34962
		},
		{
			"buffer":0,
			"byteLength":2176,
			"byteOffset":6528,
			"target":34962
		},
		{
			"buffer":0,
			"byteLength":840,
			"byteOffset":8704,
			"target":34963
		},
		{
			"buffer":0,
			"byteLength":1080,
			"byteOffset":9544,
			"target":34962
		},
		{
			"buffer":0,
			"byteLength":1080,
			"byteOffset":10624,
			"target":34962
		},
		{
			"buffer":0,
			"byteLength":720,
			"byteOffset":11704,
			"target":34962
		},
		{
			"buffer":0,
			"byteLength":288,
			"byteOffset":12424,
			"target":34963
		},
		{
			"buffer":0,
			"byteLength":2928,
			"byteOffset":12712,
			"target":34962
		},
		{
			"buffer":0,
			"byteLength":2928,
			"byteOffset":15640,
			"target":34962
		},
		{
			"buffer":0,
			"byteLength":1952,
			"byteOffset":18568,
			"target":34962
		},
		{
			"buffer":0,
			"byteLength":960,
			"byteOffset":20520,
			"target":34963
		},
		{
			"buffer":0,
			"byteLength":1752,
			"byteOffset":21480,
			"target":34962
		},
		{
			"buffer":0,
			"byteLength":1752,
			"byteOffset":23232,
			"target":34962
		},
		{
			"buffer":0,
			"byteLength":1168,
			"byteOffset":24984,
			"target":34962
		},
		{
			"buffer":0,
			"byteLength":480,
			"byteOffset":26152,
			"target":34963
		},
		{
			"buffer":0,
			"byteLength":1548,
			"byteOffset":26632,
			"target":34962
		},
		{
			"buffer":0,
			"byteLength":1548,
			"byteOffset":28180,
			"target":34962
		},
		{
			"buffer":0,
			"byteLength":1032,
			"byteOffset":29728,
			"target":34962
		},
		{
			"buffer":0,
			"byteLength":408,
			"byteOffset":30760,
			"target":34963
		},
		{
			"buffer":0,
			"byteLength":10380,
			"byteOffset":31168,
			"target":34962
		},
		{
			"buffer":0,
			"byteLength":10380,
			"byteOffset":41548,
			"target":34962
		},
		{
			"buffer":0,
			"byteLength":6920,
			"byteOffset":51928,
			"target":34962
		},
		{
			"buffer":0,
			"byteLength":2880,
			"byteOffset":58848,
			"target":34963
		},
		{
			"buffer":0,
			"byteLength":480,
			"byteOffset":61728
		},
		{
			"buffer":0,
			"byteLength":1440,
			"byteOffset":62208
		},
		{
			"buffer":0,
			"byteLength":8,
			"byteOffset":63648
		},
		{
			"buffer":0,
			"byteLength":32,
			"byteOffset":63656
		},
		{
			"buffer":0,
			"byteLength":24,
			"byteOffset":63688
		},
		{
			"buffer":0,
			"byteLength":8,
			"byteOffset":63712
		},
		{
			"buffer":0,
			"byteLength":24,
			"byteOffset":63720
		},
		{
			"buffer":0,
			"byteLength":32,
			"byteOffset":63744
		},
		{
			"buffer":0,
			"byteLength":24,
			"byteOffset":63776
		}
	],
	"samplers":[
		{
			"magFilter":9729,
			"minFilter":9987
		}
	],
	"buffers":[
		{
			"byteLength":63800,
			"uri":"Player.bin"
		}
	]
}
