{
	"asset":{
		"generator":"Khronos glTF Blender I/O v4.1.62",
		"version":"2.0"
	},
	"extensionsUsed":[
		"KHR_materials_specular"
	],
	"scene":0,
	"scenes":[
		{
			"name":"Scene",
			"nodes":[
				1
			]
		}
	],
	"nodes":[
		{
			"name":"APc_muzzle",
			"translation":[
				0,
				0,
				-1.4427086114883423
			]
		},
		{
			"children":[
				0
			],
			"mesh":0,
			"name":"Dreadnaught-cannon"
		}
	],
	"animations":[
		{
			"channels":[
				{
					"sampler":0,
					"target":{
						"node":1,
						"path":"translation"
					}
				},
				{
					"sampler":1,
					"target":{
						"node":1,
						"path":"rotation"
					}
				},
				{
					"sampler":2,
					"target":{
						"node":1,
						"path":"scale"
					}
				}
			],
			"name":"Shot",
			"samplers":[
				{
					"input":4,
					"interpolation":"LINEAR",
					"output":5
				},
				{
					"input":6,
					"interpolation":"STEP",
					"output":7
				},
				{
					"input":6,
					"interpolation":"STEP",
					"output":8
				}
			]
		}
	],
	"materials":[
		{
			"doubleSided":true,
			"extensions":{
				"KHR_materials_specular":{
					"specularFactor":0
				}
			},
			"name":"\u30de\u30c6\u30ea\u30a2\u30eb",
			"normalTexture":{
				"index":0,
				"scale":0.5
			},
			"pbrMetallicRoughness":{
				"baseColorTexture":{
					"index":1
				},
				"roughnessFactor":0.858578622341156
			}
		}
	],
	"meshes":[
		{
			"name":"\u30e1\u30c3\u30b7\u30e5.013",
			"primitives":[
				{
					"attributes":{
						"POSITION":0,
						"NORMAL":1,
						"TEXCOORD_0":2
					},
					"indices":3,
					"material":0
				}
			]
		}
	],
	"textures":[
		{
			"sampler":0,
			"source":0
		},
		{
			"sampler":0,
			"source":1
		}
	],
	"images":[
		{
			"mimeType":"image/png",
			"name":"Dreadnaught01normal",
			"uri":"Dreadnaught01normal.png"
		},
		{
			"mimeType":"image/png",
			"name":"Dreadnaught01",
			"uri":"Dreadnaught01.png"
		}
	],
	"accessors":[
		{
			"bufferView":0,
			"componentType":5126,
			"count":272,
			"max":[
				0.3134223520755768,
				0.23701035976409912,
				0.0779324546456337
			],
			"min":[
				-0.3041132688522339,
				-0.22694499790668488,
				-1.435797095298767
			],
			"type":"VEC3"
		},
		{
			"bufferView":1,
			"componentType":5126,
			"count":272,
			"type":"VEC3"
		},
		{
			"bufferView":2,
			"componentType":5126,
			"count":272,
			"type":"VEC2"
		},
		{
			"bufferView":3,
			"componentType":5123,
			"count":420,
			"type":"SCALAR"
		},
		{
			"bufferView":4,
			"componentType":5126,
			"count":30,
			"max":[
				1
			],
			"min":[
				0.03333333333333333
			],
			"type":"SCALAR"
		},
		{
			"bufferView":5,
			"componentType":5126,
			"count":30,
			"type":"VEC3"
		},
		{
			"bufferView":6,
			"componentType":5126,
			"count":2,
			"max":[
				1
			],
			"min":[
				0.03333333333333333
			],
			"type":"SCALAR"
		},
		{
			"bufferView":7,
			"componentType":5126,
			"count":2,
			"type":"VEC4"
		},
		{
			"bufferView":8,
			"componentType":5126,
			"count":2,
			"type":"VEC3"
		}
	],
	"bufferViews":[
		{
			"buffer":0,
			"byteLength":3264,
			"byteOffset":0,
			"target":34962
		},
		{
			"buffer":0,
			"byteLength":3264,
			"byteOffset":3264,
			"target":34962
		},
		{
			"buffer":0,
			"byteLength":2176,
			"byteOffset":6528,
			"target":34962
		},
		{
			"buffer":0,
			"byteLength":840,
			"byteOffset":8704,
			"target":34963
		},
		{
			"buffer":0,
			"byteLength":120,
			"byteOffset":9544
		},
		{
			"buffer":0,
			"byteLength":360,
			"byteOffset":9664
		},
		{
			"buffer":0,
			"byteLength":8,
			"byteOffset":10024
		},
		{
			"buffer":0,
			"byteLength":32,
			"byteOffset":10032
		},
		{
			"buffer":0,
			"byteLength":24,
			"byteOffset":10064
		}
	],
	"samplers":[
		{
			"magFilter":9729,
			"minFilter":9987
		}
	],
	"buffers":[
		{
			"byteLength":10088,
			"uri":"Player_cannon.bin"
		}
	]
}
