{
	"asset":{
		"generator":"Khronos glTF Blender I/O v4.1.62",
		"version":"2.0"
	},
	"extensionsUsed":[
		"KHR_materials_specular"
	],
	"scene":0,
	"scenes":[
		{
			"name":"Scene",
			"nodes":[
				9
			]
		}
	],
	"nodes":[
		{
			"mesh":0,
			"name":"Dreadnaught-cannon"
		},
		{
			"children":[
				0
			],
			"name":"APcannon",
			"translation":[
				-0.004652798641473055,
				0.02668362855911255,
				-0.40739187598228455
			]
		},
		{
			"mesh":1,
			"name":"Dreadnaught-minigun-barrels",
			"translation":[
				0.4903331995010376,
				-0.029246807098388672,
				-0.31824779510498047
			]
		},
		{
			"children":[
				2
			],
			"mesh":2,
			"name":"Dreadnaught-minigun",
			"translation":[
				0.00036025047302246094,
				0.008403778076171875,
				0.0010822415351867676
			]
		},
		{
			"children":[
				3
			],
			"name":"APminigun",
			"translation":[
				0.07206187397241592,
				0.2807294726371765,
				0.1517917513847351
			]
		},
		{
			"mesh":3,
			"name":"Dreadnaught-Nuke-tube",
			"translation":[
				-0.000631287693977356,
				0.008244633674621582,
				0.000795513391494751
			]
		},
		{
			"children":[
				5
			],
			"name":"APNuke-tube",
			"translation":[
				-0.12626050412654877,
				0.2489193081855774,
				0.09444508701562881
			]
		},
		{
			"children":[
				1,
				4,
				6
			],
			"mesh":4,
			"name":"Dreadnaught-battery",
			"translation":[
				0,
				0.00700002908706665,
				0
			]
		},
		{
			"children":[
				7
			],
			"name":"APbattery",
			"translation":[
				0,
				0.6000001430511475,
				0.06465684622526169
			]
		},
		{
			"children":[
				8
			],
			"mesh":5,
			"name":"Dreadnaught",
			"translation":[
				0,
				0.29999998211860657,
				0
			]
		}
	],
	"animations":[
		{
			"channels":[
				{
					"sampler":0,
					"target":{
						"node":9,
						"path":"translation"
					}
				},
				{
					"sampler":1,
					"target":{
						"node":9,
						"path":"rotation"
					}
				},
				{
					"sampler":2,
					"target":{
						"node":9,
						"path":"scale"
					}
				}
			],
			"name":"Idle",
			"samplers":[
				{
					"input":24,
					"interpolation":"LINEAR",
					"output":25
				},
				{
					"input":26,
					"interpolation":"STEP",
					"output":27
				},
				{
					"input":26,
					"interpolation":"STEP",
					"output":28
				}
			]
		},
		{
			"channels":[
				{
					"sampler":0,
					"target":{
						"node":9,
						"path":"translation"
					}
				},
				{
					"sampler":1,
					"target":{
						"node":9,
						"path":"rotation"
					}
				},
				{
					"sampler":2,
					"target":{
						"node":9,
						"path":"scale"
					}
				}
			],
			"name":"Stop",
			"samplers":[
				{
					"input":29,
					"interpolation":"STEP",
					"output":30
				},
				{
					"input":29,
					"interpolation":"STEP",
					"output":31
				},
				{
					"input":29,
					"interpolation":"STEP",
					"output":32
				}
			]
		}
	],
	"materials":[
		{
			"doubleSided":true,
			"extensions":{
				"KHR_materials_specular":{
					"specularFactor":0
				}
			},
			"name":"01 - Default",
			"pbrMetallicRoughness":{
				"baseColorTexture":{
					"index":0
				},
				"roughnessFactor":0.858578622341156
			}
		}
	],
	"meshes":[
		{
			"name":"\u30e1\u30c3\u30b7\u30e5.013",
			"primitives":[
				{
					"attributes":{
						"POSITION":0,
						"NORMAL":1,
						"TEXCOORD_0":2
					},
					"indices":3,
					"material":0
				}
			]
		},
		{
			"name":"\u30e1\u30c3\u30b7\u30e5.011",
			"primitives":[
				{
					"attributes":{
						"POSITION":4,
						"NORMAL":5,
						"TEXCOORD_0":6
					},
					"indices":7,
					"material":0
				}
			]
		},
		{
			"name":"\u30e1\u30c3\u30b7\u30e5.012",
			"primitives":[
				{
					"attributes":{
						"POSITION":8,
						"NORMAL":9,
						"TEXCOORD_0":10
					},
					"indices":11,
					"material":0
				}
			]
		},
		{
			"name":"\u30e1\u30c3\u30b7\u30e5.010",
			"primitives":[
				{
					"attributes":{
						"POSITION":12,
						"NORMAL":13,
						"TEXCOORD_0":14
					},
					"indices":15,
					"material":0
				}
			]
		},
		{
			"name":"\u30e1\u30c3\u30b7\u30e5.001",
			"primitives":[
				{
					"attributes":{
						"POSITION":16,
						"NORMAL":17,
						"TEXCOORD_0":18
					},
					"indices":19,
					"material":0
				}
			]
		},
		{
			"name":"\u30e1\u30c3\u30b7\u30e5.009",
			"primitives":[
				{
					"attributes":{
						"POSITION":20,
						"NORMAL":21,
						"TEXCOORD_0":22
					},
					"indices":23,
					"material":0
				}
			]
		}
	],
	"textures":[
		{
			"sampler":0,
			"source":0
		}
	],
	"images":[
		{
			"mimeType":"image/png",
			"name":"Dreadnaught01",
			"uri":"Dreadnaught01.png"
		}
	],
	"accessors":[
		{
			"bufferView":0,
			"componentType":5126,
			"count":272,
			"max":[
				0.3134223520755768,
				0.23701035976409912,
				0.0779324546456337
			],
			"min":[
				-0.3041132688522339,
				-0.22694499790668488,
				-1.435797095298767
			],
			"type":"VEC3"
		},
		{
			"bufferView":1,
			"componentType":5126,
			"count":272,
			"type":"VEC3"
		},
		{
			"bufferView":2,
			"componentType":5126,
			"count":272,
			"type":"VEC2"
		},
		{
			"bufferView":3,
			"componentType":5123,
			"count":420,
			"type":"SCALAR"
		},
		{
			"bufferView":4,
			"componentType":5126,
			"count":90,
			"max":[
				0.15717138350009918,
				0.1464901864528656,
				0.013720735907554626
			],
			"min":[
				-0.153856098651886,
				-0.14931435883045197,
				-0.8175995349884033
			],
			"type":"VEC3"
		},
		{
			"bufferView":5,
			"componentType":5126,
			"count":90,
			"type":"VEC3"
		},
		{
			"bufferView":6,
			"componentType":5126,
			"count":90,
			"type":"VEC2"
		},
		{
			"bufferView":7,
			"componentType":5123,
			"count":144,
			"type":"SCALAR"
		},
		{
			"bufferView":8,
			"componentType":5126,
			"count":244,
			"max":[
				0.7137792706489563,
				0.21307256817817688,
				0.4295082986354828
			],
			"min":[
				-0.06344515085220337,
				-0.23746341466903687,
				-0.9981247186660767
			],
			"type":"VEC3"
		},
		{
			"bufferView":9,
			"componentType":5126,
			"count":244,
			"type":"VEC3"
		},
		{
			"bufferView":10,
			"componentType":5126,
			"count":244,
			"type":"VEC2"
		},
		{
			"bufferView":11,
			"componentType":5123,
			"count":480,
			"type":"SCALAR"
		},
		{
			"bufferView":12,
			"componentType":5126,
			"count":146,
			"max":[
				0.08741997182369232,
				0.20457330346107483,
				0.3263489305973053
			],
			"min":[
				-0.6782035231590271,
				-0.4235856235027313,
				-0.1345806121826172
			],
			"type":"VEC3"
		},
		{
			"bufferView":13,
			"componentType":5126,
			"count":146,
			"type":"VEC3"
		},
		{
			"bufferView":14,
			"componentType":5126,
			"count":146,
			"type":"VEC2"
		},
		{
			"bufferView":15,
			"componentType":5123,
			"count":240,
			"type":"SCALAR"
		},
		{
			"bufferView":16,
			"componentType":5126,
			"count":129,
			"max":[
				0.5508317947387695,
				0.3204214870929718,
				0.9734834432601929
			],
			"min":[
				-0.5508267879486084,
				-0.23495890200138092,
				-0.581661581993103
			],
			"type":"VEC3"
		},
		{
			"bufferView":17,
			"componentType":5126,
			"count":129,
			"type":"VEC3"
		},
		{
			"bufferView":18,
			"componentType":5126,
			"count":129,
			"type":"VEC2"
		},
		{
			"bufferView":19,
			"componentType":5123,
			"count":204,
			"type":"SCALAR"
		},
		{
			"bufferView":20,
			"componentType":5126,
			"count":865,
			"max":[
				1.1590025424957275,
				0.6355011463165283,
				1.1449164152145386
			],
			"min":[
				-1.1590090990066528,
				-0.32103896141052246,
				-1.5334933996200562
			],
			"type":"VEC3"
		},
		{
			"bufferView":21,
			"componentType":5126,
			"count":865,
			"type":"VEC3"
		},
		{
			"bufferView":22,
			"componentType":5126,
			"count":865,
			"type":"VEC2"
		},
		{
			"bufferView":23,
			"componentType":5123,
			"count":1440,
			"type":"SCALAR"
		},
		{
			"bufferView":24,
			"componentType":5126,
			"count":120,
			"max":[
				4
			],
			"min":[
				0.03333333333333333
			],
			"type":"SCALAR"
		},
		{
			"bufferView":25,
			"componentType":5126,
			"count":120,
			"type":"VEC3"
		},
		{
			"bufferView":26,
			"componentType":5126,
			"count":2,
			"max":[
				4
			],
			"min":[
				0.03333333333333333
			],
			"type":"SCALAR"
		},
		{
			"bufferView":27,
			"componentType":5126,
			"count":2,
			"type":"VEC4"
		},
		{
			"bufferView":28,
			"componentType":5126,
			"count":2,
			"type":"VEC3"
		},
		{
			"bufferView":29,
			"componentType":5126,
			"count":2,
			"max":[
				0.06666666666666667
			],
			"min":[
				0.03333333333333333
			],
			"type":"SCALAR"
		},
		{
			"bufferView":30,
			"componentType":5126,
			"count":2,
			"type":"VEC3"
		},
		{
			"bufferView":31,
			"componentType":5126,
			"count":2,
			"type":"VEC4"
		},
		{
			"bufferView":32,
			"componentType":5126,
			"count":2,
			"type":"VEC3"
		}
	],
	"bufferViews":[
		{
			"buffer":0,
			"byteLength":3264,
			"byteOffset":0,
			"target":34962
		},
		{
			"buffer":0,
			"byteLength":3264,
			"byteOffset":3264,
			"target":34962
		},
		{
			"buffer":0,
			"byteLength":2176,
			"byteOffset":6528,
			"target":34962
		},
		{
			"buffer":0,
			"byteLength":840,
			"byteOffset":8704,
			"target":34963
		},
		{
			"buffer":0,
			"byteLength":1080,
			"byteOffset":9544,
			"target":34962
		},
		{
			"buffer":0,
			"byteLength":1080,
			"byteOffset":10624,
			"target":34962
		},
		{
			"buffer":0,
			"byteLength":720,
			"byteOffset":11704,
			"target":34962
		},
		{
			"buffer":0,
			"byteLength":288,
			"byteOffset":12424,
			"target":34963
		},
		{
			"buffer":0,
			"byteLength":2928,
			"byteOffset":12712,
			"target":34962
		},
		{
			"buffer":0,
			"byteLength":2928,
			"byteOffset":15640,
			"target":34962
		},
		{
			"buffer":0,
			"byteLength":1952,
			"byteOffset":18568,
			"target":34962
		},
		{
			"buffer":0,
			"byteLength":960,
			"byteOffset":20520,
			"target":34963
		},
		{
			"buffer":0,
			"byteLength":1752,
			"byteOffset":21480,
			"target":34962
		},
		{
			"buffer":0,
			"byteLength":1752,
			"byteOffset":23232,
			"target":34962
		},
		{
			"buffer":0,
			"byteLength":1168,
			"byteOffset":24984,
			"target":34962
		},
		{
			"buffer":0,
			"byteLength":480,
			"byteOffset":26152,
			"target":34963
		},
		{
			"buffer":0,
			"byteLength":1548,
			"byteOffset":26632,
			"target":34962
		},
		{
			"buffer":0,
			"byteLength":1548,
			"byteOffset":28180,
			"target":34962
		},
		{
			"buffer":0,
			"byteLength":1032,
			"byteOffset":29728,
			"target":34962
		},
		{
			"buffer":0,
			"byteLength":408,
			"byteOffset":30760,
			"target":34963
		},
		{
			"buffer":0,
			"byteLength":10380,
			"byteOffset":31168,
			"target":34962
		},
		{
			"buffer":0,
			"byteLength":10380,
			"byteOffset":41548,
			"target":34962
		},
		{
			"buffer":0,
			"byteLength":6920,
			"byteOffset":51928,
			"target":34962
		},
		{
			"buffer":0,
			"byteLength":2880,
			"byteOffset":58848,
			"target":34963
		},
		{
			"buffer":0,
			"byteLength":480,
			"byteOffset":61728
		},
		{
			"buffer":0,
			"byteLength":1440,
			"byteOffset":62208
		},
		{
			"buffer":0,
			"byteLength":8,
			"byteOffset":63648
		},
		{
			"buffer":0,
			"byteLength":32,
			"byteOffset":63656
		},
		{
			"buffer":0,
			"byteLength":24,
			"byteOffset":63688
		},
		{
			"buffer":0,
			"byteLength":8,
			"byteOffset":63712
		},
		{
			"buffer":0,
			"byteLength":24,
			"byteOffset":63720
		},
		{
			"buffer":0,
			"byteLength":32,
			"byteOffset":63744
		},
		{
			"buffer":0,
			"byteLength":24,
			"byteOffset":63776
		}
	],
	"samplers":[
		{
			"magFilter":9729,
			"minFilter":9987
		}
	],
	"buffers":[
		{
			"byteLength":63800,
			"uri":"Player.bin"
		}
	]
}
