{
	"asset":{
		"generator":"Khronos glTF Blender I/O v4.1.62",
		"version":"2.0"
	},
	"extensionsUsed":[
		"KHR_materials_specular"
	],
	"scene":0,
	"scenes":[
		{
			"name":"Scene",
			"nodes":[
				4
			]
		}
	],
	"nodes":[
		{
			"mesh":0,
			"name":"Dreadnaught-cannon",
			"translation":[
				0,
				0,
				-3.0517578125e-05
			]
		},
		{
			"mesh":1,
			"name":"Dreadnaught-minigun",
			"translation":[
				0,
				0,
				-3.0517578125e-05
			]
		},
		{
			"mesh":2,
			"name":"Dreadnaught-minigun-barrels",
			"translation":[
				-281.7270202636719,
				259.3153381347656,
				-429.8173522949219
			]
		},
		{
			"mesh":3,
			"name":"Dreadnaught-Nuke-tube",
			"translation":[
				0,
				0,
				-3.0517578125e-05
			]
		},
		{
			"children":[
				0,
				1,
				2,
				3
			],
			"mesh":4,
			"name":"Dreadnaught",
			"rotation":[
				0,
				-0.7071068286895752,
				0.7071067690849304,
				3.090862321641907e-08
			],
			"scale":[
				0.015124352648854256,
				0.015124352648854256,
				0.015124352648854256
			],
			"translation":[
				0,
				2,
				0
			]
		}
	],
	"animations":[
		{
			"channels":[
				{
					"sampler":0,
					"target":{
						"node":4,
						"path":"translation"
					}
				},
				{
					"sampler":1,
					"target":{
						"node":4,
						"path":"rotation"
					}
				},
				{
					"sampler":2,
					"target":{
						"node":4,
						"path":"scale"
					}
				}
			],
			"name":"Forward",
			"samplers":[
				{
					"input":20,
					"interpolation":"STEP",
					"output":21
				},
				{
					"input":22,
					"interpolation":"LINEAR",
					"output":23
				},
				{
					"input":20,
					"interpolation":"STEP",
					"output":24
				}
			]
		},
		{
			"channels":[
				{
					"sampler":0,
					"target":{
						"node":4,
						"path":"translation"
					}
				},
				{
					"sampler":1,
					"target":{
						"node":4,
						"path":"rotation"
					}
				},
				{
					"sampler":2,
					"target":{
						"node":4,
						"path":"scale"
					}
				}
			],
			"name":"Idle",
			"samplers":[
				{
					"input":25,
					"interpolation":"LINEAR",
					"output":26
				},
				{
					"input":27,
					"interpolation":"STEP",
					"output":28
				},
				{
					"input":27,
					"interpolation":"STEP",
					"output":29
				}
			]
		},
		{
			"channels":[
				{
					"sampler":0,
					"target":{
						"node":4,
						"path":"translation"
					}
				},
				{
					"sampler":1,
					"target":{
						"node":4,
						"path":"rotation"
					}
				},
				{
					"sampler":2,
					"target":{
						"node":4,
						"path":"scale"
					}
				}
			],
			"name":"Jump",
			"samplers":[
				{
					"input":30,
					"interpolation":"LINEAR",
					"output":31
				},
				{
					"input":32,
					"interpolation":"STEP",
					"output":33
				},
				{
					"input":32,
					"interpolation":"STEP",
					"output":34
				}
			]
		}
	],
	"materials":[
		{
			"doubleSided":true,
			"extensions":{
				"KHR_materials_specular":{
					"specularFactor":0
				}
			},
			"name":"01 - Default",
			"pbrMetallicRoughness":{
				"baseColorTexture":{
					"index":0
				},
				"roughnessFactor":0.858578622341156
			}
		}
	],
	"meshes":[
		{
			"name":"\u30e1\u30c3\u30b7\u30e5.013",
			"primitives":[
				{
					"attributes":{
						"POSITION":0,
						"NORMAL":1,
						"TEXCOORD_0":2
					},
					"indices":3,
					"material":0
				}
			]
		},
		{
			"name":"\u30e1\u30c3\u30b7\u30e5.012",
			"primitives":[
				{
					"attributes":{
						"POSITION":4,
						"NORMAL":5,
						"TEXCOORD_0":6
					},
					"indices":7,
					"material":0
				}
			]
		},
		{
			"name":"\u30e1\u30c3\u30b7\u30e5.011",
			"primitives":[
				{
					"attributes":{
						"POSITION":8,
						"NORMAL":9,
						"TEXCOORD_0":10
					},
					"indices":11,
					"material":0
				}
			]
		},
		{
			"name":"\u30e1\u30c3\u30b7\u30e5.010",
			"primitives":[
				{
					"attributes":{
						"POSITION":12,
						"NORMAL":13,
						"TEXCOORD_0":14
					},
					"indices":15,
					"material":0
				}
			]
		},
		{
			"name":"\u30e1\u30c3\u30b7\u30e5.009",
			"primitives":[
				{
					"attributes":{
						"POSITION":16,
						"NORMAL":17,
						"TEXCOORD_0":18
					},
					"indices":19,
					"material":0
				}
			]
		}
	],
	"textures":[
		{
			"sampler":0,
			"source":0
		}
	],
	"images":[
		{
			"mimeType":"image/png",
			"name":"Dreadnaught01",
			"uri":"Dreadnaught01.png"
		}
	],
	"accessors":[
		{
			"bufferView":0,
			"componentType":5126,
			"count":272,
			"max":[
				154.38406372070312,
				882.8138427734375,
				-241.9862518310547
			],
			"min":[
				-154.38365173339844,
				125.94942474365234,
				-473.9638366699219
			],
			"type":"VEC3"
		},
		{
			"bufferView":1,
			"componentType":5126,
			"count":272,
			"type":"VEC3"
		},
		{
			"bufferView":2,
			"componentType":5126,
			"count":272,
			"type":"VEC2"
		},
		{
			"bufferView":3,
			"componentType":5123,
			"count":420,
			"type":"SCALAR"
		},
		{
			"bufferView":4,
			"componentType":5126,
			"count":244,
			"max":[
				-4.306949138641357,
				390.5698547363281,
				-324.12005615234375
			],
			"min":[
				-392.9189758300781,
				-323.24639892578125,
				-549.387939453125
			],
			"type":"VEC3"
		},
		{
			"bufferView":5,
			"componentType":5126,
			"count":244,
			"type":"VEC3"
		},
		{
			"bufferView":6,
			"componentType":5126,
			"count":244,
			"type":"VEC2"
		},
		{
			"bufferView":7,
			"componentType":5123,
			"count":480,
			"type":"SCALAR"
		},
		{
			"bufferView":8,
			"componentType":5126,
			"count":90,
			"max":[
				77.75677490234375,
				207.82998657226562,
				73.9511489868164
			],
			"min":[
				-77.75677490234375,
				-207.82998657226562,
				-73.95109558105469
			],
			"type":"VEC3"
		},
		{
			"bufferView":9,
			"componentType":5126,
			"count":90,
			"type":"VEC3"
		},
		{
			"bufferView":10,
			"componentType":5126,
			"count":90,
			"type":"VEC2"
		},
		{
			"bufferView":11,
			"componentType":5123,
			"count":144,
			"type":"SCALAR"
		},
		{
			"bufferView":12,
			"componentType":5126,
			"count":146,
			"max":[
				402.2332763671875,
				-12.528624534606934,
				-215.1536865234375
			],
			"min":[
				19.42165184020996,
				-242.99322509765625,
				-529.2330932617188
			],
			"type":"VEC3"
		},
		{
			"bufferView":13,
			"componentType":5126,
			"count":146,
			"type":"VEC3"
		},
		{
			"bufferView":14,
			"componentType":5126,
			"count":146,
			"type":"VEC2"
		},
		{
			"bufferView":15,
			"componentType":5123,
			"count":240,
			"type":"SCALAR"
		},
		{
			"bufferView":16,
			"componentType":5126,
			"count":905,
			"max":[
				579.5028686523438,
				767.9365844726562,
				54.03480529785156
			],
			"min":[
				-579.5028686523438,
				-571.26806640625,
				-493.881591796875
			],
			"type":"VEC3"
		},
		{
			"bufferView":17,
			"componentType":5126,
			"count":905,
			"type":"VEC3"
		},
		{
			"bufferView":18,
			"componentType":5126,
			"count":905,
			"type":"VEC2"
		},
		{
			"bufferView":19,
			"componentType":5123,
			"count":1524,
			"type":"SCALAR"
		},
		{
			"bufferView":20,
			"componentType":5126,
			"count":2,
			"max":[
				2
			],
			"min":[
				0.03333333333333333
			],
			"type":"SCALAR"
		},
		{
			"bufferView":21,
			"componentType":5126,
			"count":2,
			"type":"VEC3"
		},
		{
			"bufferView":22,
			"componentType":5126,
			"count":60,
			"max":[
				2
			],
			"min":[
				0.03333333333333333
			],
			"type":"SCALAR"
		},
		{
			"bufferView":23,
			"componentType":5126,
			"count":60,
			"type":"VEC4"
		},
		{
			"bufferView":24,
			"componentType":5126,
			"count":2,
			"type":"VEC3"
		},
		{
			"bufferView":25,
			"componentType":5126,
			"count":120,
			"max":[
				4
			],
			"min":[
				0.03333333333333333
			],
			"type":"SCALAR"
		},
		{
			"bufferView":26,
			"componentType":5126,
			"count":120,
			"type":"VEC3"
		},
		{
			"bufferView":27,
			"componentType":5126,
			"count":2,
			"max":[
				4
			],
			"min":[
				0.03333333333333333
			],
			"type":"SCALAR"
		},
		{
			"bufferView":28,
			"componentType":5126,
			"count":2,
			"type":"VEC4"
		},
		{
			"bufferView":29,
			"componentType":5126,
			"count":2,
			"type":"VEC3"
		},
		{
			"bufferView":30,
			"componentType":5126,
			"count":20,
			"max":[
				0.6666666666666666
			],
			"min":[
				0.03333333333333333
			],
			"type":"SCALAR"
		},
		{
			"bufferView":31,
			"componentType":5126,
			"count":20,
			"type":"VEC3"
		},
		{
			"bufferView":32,
			"componentType":5126,
			"count":2,
			"max":[
				0.6666666666666666
			],
			"min":[
				0.03333333333333333
			],
			"type":"SCALAR"
		},
		{
			"bufferView":33,
			"componentType":5126,
			"count":2,
			"type":"VEC4"
		},
		{
			"bufferView":34,
			"componentType":5126,
			"count":2,
			"type":"VEC3"
		}
	],
	"bufferViews":[
		{
			"buffer":0,
			"byteLength":3264,
			"byteOffset":0,
			"target":34962
		},
		{
			"buffer":0,
			"byteLength":3264,
			"byteOffset":3264,
			"target":34962
		},
		{
			"buffer":0,
			"byteLength":2176,
			"byteOffset":6528,
			"target":34962
		},
		{
			"buffer":0,
			"byteLength":840,
			"byteOffset":8704,
			"target":34963
		},
		{
			"buffer":0,
			"byteLength":2928,
			"byteOffset":9544,
			"target":34962
		},
		{
			"buffer":0,
			"byteLength":2928,
			"byteOffset":12472,
			"target":34962
		},
		{
			"buffer":0,
			"byteLength":1952,
			"byteOffset":15400,
			"target":34962
		},
		{
			"buffer":0,
			"byteLength":960,
			"byteOffset":17352,
			"target":34963
		},
		{
			"buffer":0,
			"byteLength":1080,
			"byteOffset":18312,
			"target":34962
		},
		{
			"buffer":0,
			"byteLength":1080,
			"byteOffset":19392,
			"target":34962
		},
		{
			"buffer":0,
			"byteLength":720,
			"byteOffset":20472,
			"target":34962
		},
		{
			"buffer":0,
			"byteLength":288,
			"byteOffset":21192,
			"target":34963
		},
		{
			"buffer":0,
			"byteLength":1752,
			"byteOffset":21480,
			"target":34962
		},
		{
			"buffer":0,
			"byteLength":1752,
			"byteOffset":23232,
			"target":34962
		},
		{
			"buffer":0,
			"byteLength":1168,
			"byteOffset":24984,
			"target":34962
		},
		{
			"buffer":0,
			"byteLength":480,
			"byteOffset":26152,
			"target":34963
		},
		{
			"buffer":0,
			"byteLength":10860,
			"byteOffset":26632,
			"target":34962
		},
		{
			"buffer":0,
			"byteLength":10860,
			"byteOffset":37492,
			"target":34962
		},
		{
			"buffer":0,
			"byteLength":7240,
			"byteOffset":48352,
			"target":34962
		},
		{
			"buffer":0,
			"byteLength":3048,
			"byteOffset":55592,
			"target":34963
		},
		{
			"buffer":0,
			"byteLength":8,
			"byteOffset":58640
		},
		{
			"buffer":0,
			"byteLength":24,
			"byteOffset":58648
		},
		{
			"buffer":0,
			"byteLength":240,
			"byteOffset":58672
		},
		{
			"buffer":0,
			"byteLength":960,
			"byteOffset":58912
		},
		{
			"buffer":0,
			"byteLength":24,
			"byteOffset":59872
		},
		{
			"buffer":0,
			"byteLength":480,
			"byteOffset":59896
		},
		{
			"buffer":0,
			"byteLength":1440,
			"byteOffset":60376
		},
		{
			"buffer":0,
			"byteLength":8,
			"byteOffset":61816
		},
		{
			"buffer":0,
			"byteLength":32,
			"byteOffset":61824
		},
		{
			"buffer":0,
			"byteLength":24,
			"byteOffset":61856
		},
		{
			"buffer":0,
			"byteLength":80,
			"byteOffset":61880
		},
		{
			"buffer":0,
			"byteLength":240,
			"byteOffset":61960
		},
		{
			"buffer":0,
			"byteLength":8,
			"byteOffset":62200
		},
		{
			"buffer":0,
			"byteLength":32,
			"byteOffset":62208
		},
		{
			"buffer":0,
			"byteLength":24,
			"byteOffset":62240
		}
	],
	"samplers":[
		{
			"magFilter":9729,
			"minFilter":9987
		}
	],
	"buffers":[
		{
			"byteLength":62264,
			"uri":"Player3.bin"
		}
	]
}
