{
	"asset":{
		"generator":"Khronos glTF Blender I/O v4.1.62",
		"version":"2.0"
	},
	"extensionsUsed":[
		"KHR_materials_specular"
	],
	"scene":0,
	"scenes":[
		{
			"name":"Scene",
			"nodes":[
				1
			]
		}
	],
	"nodes":[
		{
			"name":"APMuzzle",
			"translation":[
				0,
				0.6345871686935425,
				-3.8220441341400146
			]
		},
		{
			"children":[
				0
			],
			"mesh":0,
			"name":"laser"
		}
	],
	"materials":[
		{
			"doubleSided":true,
			"extensions":{
				"KHR_materials_specular":{
					"specularFactor":0
				}
			},
			"name":"02 - Default",
			"pbrMetallicRoughness":{
				"baseColorFactor":[
					0,
					0.8000000715255737,
					1,
					1
				],
				"roughnessFactor":0.858578622341156
			}
		},
		{
			"doubleSided":true,
			"extensions":{
				"KHR_materials_specular":{
					"specularFactor":0
				}
			},
			"name":"03 - Default",
			"pbrMetallicRoughness":{
				"baseColorTexture":{
					"index":0
				},
				"roughnessFactor":0.858578622341156
			}
		}
	],
	"meshes":[
		{
			"name":"\u30e1\u30c3\u30b7\u30e5.001",
			"primitives":[
				{
					"attributes":{
						"POSITION":0,
						"NORMAL":1,
						"TEXCOORD_0":2
					},
					"indices":3,
					"material":0
				},
				{
					"attributes":{
						"POSITION":4,
						"NORMAL":5,
						"TEXCOORD_0":6
					},
					"indices":7,
					"material":1
				}
			]
		}
	],
	"textures":[
		{
			"sampler":0,
			"source":0
		}
	],
	"images":[
		{
			"mimeType":"image/png",
			"name":"TurretTexture",
			"uri":"TurretTexture.png"
		}
	],
	"accessors":[
		{
			"bufferView":0,
			"componentType":5126,
			"count":600,
			"max":[
				1.1564068794250488,
				0.9055246114730835,
				0.377326637506485
			],
			"min":[
				-1.1561871767044067,
				-6.1582068155985326e-06,
				-1.1989866495132446
			],
			"type":"VEC3"
		},
		{
			"bufferView":1,
			"componentType":5126,
			"count":600,
			"type":"VEC3"
		},
		{
			"bufferView":2,
			"componentType":5126,
			"count":600,
			"type":"VEC2"
		},
		{
			"bufferView":3,
			"componentType":5123,
			"count":1044,
			"type":"SCALAR"
		},
		{
			"bufferView":4,
			"componentType":5126,
			"count":1466,
			"max":[
				1.140928864479065,
				0.9561218023300171,
				0.7964169979095459
			],
			"min":[
				-1.1407102346420288,
				-6.1582068155985326e-06,
				-3.829218626022339
			],
			"type":"VEC3"
		},
		{
			"bufferView":5,
			"componentType":5126,
			"count":1466,
			"type":"VEC3"
		},
		{
			"bufferView":6,
			"componentType":5126,
			"count":1466,
			"type":"VEC2"
		},
		{
			"bufferView":7,
			"componentType":5123,
			"count":2478,
			"type":"SCALAR"
		}
	],
	"bufferViews":[
		{
			"buffer":0,
			"byteLength":7200,
			"byteOffset":0,
			"target":34962
		},
		{
			"buffer":0,
			"byteLength":7200,
			"byteOffset":7200,
			"target":34962
		},
		{
			"buffer":0,
			"byteLength":4800,
			"byteOffset":14400,
			"target":34962
		},
		{
			"buffer":0,
			"byteLength":2088,
			"byteOffset":19200,
			"target":34963
		},
		{
			"buffer":0,
			"byteLength":17592,
			"byteOffset":21288,
			"target":34962
		},
		{
			"buffer":0,
			"byteLength":17592,
			"byteOffset":38880,
			"target":34962
		},
		{
			"buffer":0,
			"byteLength":11728,
			"byteOffset":56472,
			"target":34962
		},
		{
			"buffer":0,
			"byteLength":4956,
			"byteOffset":68200,
			"target":34963
		}
	],
	"samplers":[
		{
			"magFilter":9729,
			"minFilter":9987
		}
	],
	"buffers":[
		{
			"byteLength":73156,
			"uri":"T_Laser.bin"
		}
	]
}
