{
	"asset":{
		"generator":"Khronos glTF Blender I/O v4.1.62",
		"version":"2.0"
	},
	"extensionsUsed":[
		"KHR_materials_specular"
	],
	"scene":0,
	"scenes":[
		{
			"name":"Scene",
			"nodes":[
				3
			]
		}
	],
	"nodes":[
		{
			"name":"APTurret",
			"translation":[
				0,
				2.229095458984375,
				0.849111020565033
			]
		},
		{
			"mesh":0,
			"name":"COL02",
			"scale":[
				1.1069462299346924,
				1.5621856451034546,
				1.211201786994934
			],
			"translation":[
				0,
				1.562278389930725,
				0.29046720266342163
			]
		},
		{
			"mesh":1,
			"name":"\u5186\u67f1"
		},
		{
			"children":[
				0,
				1,
				2
			],
			"mesh":2,
			"name":"leg"
		}
	],
	"materials":[
		{
			"doubleSided":true,
			"name":"\u30de\u30c6\u30ea\u30a2\u30eb",
			"pbrMetallicRoughness":{
				"baseColorFactor":[
					0.800000011920929,
					0.800000011920929,
					0.800000011920929,
					1
				],
				"metallicFactor":0,
				"roughnessFactor":0.5
			}
		},
		{
			"doubleSided":true,
			"name":"Material",
			"pbrMetallicRoughness":{
				"baseColorTexture":{
					"index":0
				},
				"metallicFactor":0,
				"roughnessFactor":0.5
			}
		},
		{
			"doubleSided":true,
			"extensions":{
				"KHR_materials_specular":{
					"specularFactor":0
				}
			},
			"name":"03 - Default",
			"pbrMetallicRoughness":{
				"baseColorTexture":{
					"index":1
				},
				"roughnessFactor":0.858578622341156
			}
		},
		{
			"doubleSided":true,
			"extensions":{
				"KHR_materials_specular":{
					"specularFactor":0
				}
			},
			"name":"02 - Default",
			"pbrMetallicRoughness":{
				"baseColorFactor":[
					0,
					0.8000000715255737,
					1,
					1
				],
				"roughnessFactor":0.858578622341156
			}
		}
	],
	"meshes":[
		{
			"name":"\u7acb\u65b9\u4f53.001",
			"primitives":[
				{
					"attributes":{
						"POSITION":0,
						"NORMAL":1,
						"TEXCOORD_0":2
					},
					"indices":3,
					"material":0
				}
			]
		},
		{
			"name":"\u5186\u67f1",
			"primitives":[
				{
					"attributes":{
						"POSITION":4,
						"NORMAL":5,
						"TEXCOORD_0":6
					},
					"indices":7,
					"material":1
				}
			]
		},
		{
			"name":"\u30e1\u30c3\u30b7\u30e5",
			"primitives":[
				{
					"attributes":{
						"POSITION":8,
						"NORMAL":9,
						"TEXCOORD_0":10
					},
					"indices":11,
					"material":2
				},
				{
					"attributes":{
						"POSITION":12,
						"NORMAL":13,
						"TEXCOORD_0":14
					},
					"indices":15,
					"material":3
				}
			]
		}
	],
	"textures":[
		{
			"sampler":0,
			"source":0
		},
		{
			"sampler":0,
			"source":0
		}
	],
	"images":[
		{
			"mimeType":"image/png",
			"name":"TurretTexture",
			"uri":"TurretTexture.png"
		}
	],
	"accessors":[
		{
			"bufferView":0,
			"componentType":5126,
			"count":24,
			"max":[
				1,
				1,
				1
			],
			"min":[
				-1,
				-1,
				-1
			],
			"type":"VEC3"
		},
		{
			"bufferView":1,
			"componentType":5126,
			"count":24,
			"type":"VEC3"
		},
		{
			"bufferView":2,
			"componentType":5126,
			"count":24,
			"type":"VEC2"
		},
		{
			"bufferView":3,
			"componentType":5123,
			"count":36,
			"type":"SCALAR"
		},
		{
			"bufferView":4,
			"componentType":5126,
			"count":144,
			"max":[
				0.6563171744346619,
				1.839521050453186,
				1.1042122840881348
			],
			"min":[
				-0.6563171744346619,
				1.355549693107605,
				0.6202410459518433
			],
			"type":"VEC3"
		},
		{
			"bufferView":5,
			"componentType":5126,
			"count":144,
			"type":"VEC3"
		},
		{
			"bufferView":6,
			"componentType":5126,
			"count":144,
			"type":"VEC2"
		},
		{
			"bufferView":7,
			"componentType":5123,
			"count":288,
			"type":"SCALAR"
		},
		{
			"bufferView":8,
			"componentType":5126,
			"count":554,
			"max":[
				1.0991737842559814,
				2.23286771774292,
				1.4679518938064575
			],
			"min":[
				-1.100554347038269,
				0.005486183799803257,
				-0.9367843866348267
			],
			"type":"VEC3"
		},
		{
			"bufferView":9,
			"componentType":5126,
			"count":554,
			"type":"VEC3"
		},
		{
			"bufferView":10,
			"componentType":5126,
			"count":554,
			"type":"VEC2"
		},
		{
			"bufferView":11,
			"componentType":5123,
			"count":1152,
			"type":"SCALAR"
		},
		{
			"bufferView":12,
			"componentType":5126,
			"count":152,
			"max":[
				1.0890021324157715,
				1.9985777139663696,
				1.4679518938064575
			],
			"min":[
				-1.09038245677948,
				0.463833749294281,
				-0.6145663261413574
			],
			"type":"VEC3"
		},
		{
			"bufferView":13,
			"componentType":5126,
			"count":152,
			"type":"VEC3"
		},
		{
			"bufferView":14,
			"componentType":5126,
			"count":152,
			"type":"VEC2"
		},
		{
			"bufferView":15,
			"componentType":5123,
			"count":444,
			"type":"SCALAR"
		}
	],
	"bufferViews":[
		{
			"buffer":0,
			"byteLength":288,
			"byteOffset":0,
			"target":34962
		},
		{
			"buffer":0,
			"byteLength":288,
			"byteOffset":288,
			"target":34962
		},
		{
			"buffer":0,
			"byteLength":192,
			"byteOffset":576,
			"target":34962
		},
		{
			"buffer":0,
			"byteLength":72,
			"byteOffset":768,
			"target":34963
		},
		{
			"buffer":0,
			"byteLength":1728,
			"byteOffset":840,
			"target":34962
		},
		{
			"buffer":0,
			"byteLength":1728,
			"byteOffset":2568,
			"target":34962
		},
		{
			"buffer":0,
			"byteLength":1152,
			"byteOffset":4296,
			"target":34962
		},
		{
			"buffer":0,
			"byteLength":576,
			"byteOffset":5448,
			"target":34963
		},
		{
			"buffer":0,
			"byteLength":6648,
			"byteOffset":6024,
			"target":34962
		},
		{
			"buffer":0,
			"byteLength":6648,
			"byteOffset":12672,
			"target":34962
		},
		{
			"buffer":0,
			"byteLength":4432,
			"byteOffset":19320,
			"target":34962
		},
		{
			"buffer":0,
			"byteLength":2304,
			"byteOffset":23752,
			"target":34963
		},
		{
			"buffer":0,
			"byteLength":1824,
			"byteOffset":26056,
			"target":34962
		},
		{
			"buffer":0,
			"byteLength":1824,
			"byteOffset":27880,
			"target":34962
		},
		{
			"buffer":0,
			"byteLength":1216,
			"byteOffset":29704,
			"target":34962
		},
		{
			"buffer":0,
			"byteLength":888,
			"byteOffset":30920,
			"target":34963
		}
	],
	"samplers":[
		{
			"magFilter":9729,
			"minFilter":9987
		}
	],
	"buffers":[
		{
			"byteLength":31808,
			"uri":"T_Leg.bin"
		}
	]
}
