{
	"asset":{
		"generator":"Khronos glTF Blender I/O v4.1.62",
		"version":"2.0"
	},
	"extensionsUsed":[
		"KHR_materials_specular"
	],
	"scene":0,
	"scenes":[
		{
			"name":"Scene",
			"nodes":[
				2
			]
		}
	],
	"nodes":[
		{
			"name":"APLeg",
			"translation":[
				0,
				1.1836529970169067,
				0
			]
		},
		{
			"mesh":0,
			"name":"COL01",
			"scale":[
				2.347355842590332,
				0.6164378523826599,
				2.347355842590332
			],
			"translation":[
				0,
				0.6105883121490479,
				0
			]
		},
		{
			"children":[
				0,
				1
			],
			"mesh":1,
			"name":"pedestal"
		}
	],
	"materials":[
		{
			"doubleSided":true,
			"extensions":{
				"KHR_materials_specular":{
					"specularFactor":0
				}
			},
			"name":"03 - Default",
			"pbrMetallicRoughness":{
				"baseColorTexture":{
					"index":0
				},
				"roughnessFactor":0.858578622341156
			}
		},
		{
			"doubleSided":true,
			"extensions":{
				"KHR_materials_specular":{
					"specularFactor":0
				}
			},
			"name":"02 - Default",
			"pbrMetallicRoughness":{
				"baseColorFactor":[
					0,
					0.8000000715255737,
					1,
					1
				],
				"roughnessFactor":0.858578622341156
			}
		}
	],
	"meshes":[
		{
			"name":"\u7acb\u65b9\u4f53",
			"primitives":[
				{
					"attributes":{
						"POSITION":0,
						"NORMAL":1,
						"TEXCOORD_0":2
					},
					"indices":3
				}
			]
		},
		{
			"name":"\u30e1\u30c3\u30b7\u30e5.002",
			"primitives":[
				{
					"attributes":{
						"POSITION":4,
						"NORMAL":5,
						"TEXCOORD_0":6
					},
					"indices":7,
					"material":0
				},
				{
					"attributes":{
						"POSITION":8,
						"NORMAL":9,
						"TEXCOORD_0":10
					},
					"indices":11,
					"material":1
				}
			]
		}
	],
	"textures":[
		{
			"sampler":0,
			"source":0
		}
	],
	"images":[
		{
			"mimeType":"image/png",
			"name":"TurretTexture",
			"uri":"TurretTexture.png"
		}
	],
	"accessors":[
		{
			"bufferView":0,
			"componentType":5126,
			"count":24,
			"max":[
				1,
				1,
				1
			],
			"min":[
				-1,
				-1,
				-1
			],
			"type":"VEC3"
		},
		{
			"bufferView":1,
			"componentType":5126,
			"count":24,
			"type":"VEC3"
		},
		{
			"bufferView":2,
			"componentType":5126,
			"count":24,
			"type":"VEC2"
		},
		{
			"bufferView":3,
			"componentType":5123,
			"count":36,
			"type":"SCALAR"
		},
		{
			"bufferView":4,
			"componentType":5126,
			"count":504,
			"max":[
				2.4381649494171143,
				1.18860924243927,
				2.4381649494171143
			],
			"min":[
				-2.4381649494171143,
				-0.017509236931800842,
				-2.4381649494171143
			],
			"type":"VEC3"
		},
		{
			"bufferView":5,
			"componentType":5126,
			"count":504,
			"type":"VEC3"
		},
		{
			"bufferView":6,
			"componentType":5126,
			"count":504,
			"type":"VEC2"
		},
		{
			"bufferView":7,
			"componentType":5123,
			"count":1038,
			"type":"SCALAR"
		},
		{
			"bufferView":8,
			"componentType":5126,
			"count":209,
			"max":[
				1.9758555889129639,
				1.1891814470291138,
				1.9758555889129639
			],
			"min":[
				-1.9758555889129639,
				0.8583353161811829,
				-1.9758552312850952
			],
			"type":"VEC3"
		},
		{
			"bufferView":9,
			"componentType":5126,
			"count":209,
			"type":"VEC3"
		},
		{
			"bufferView":10,
			"componentType":5126,
			"count":209,
			"type":"VEC2"
		},
		{
			"bufferView":11,
			"componentType":5123,
			"count":384,
			"type":"SCALAR"
		}
	],
	"bufferViews":[
		{
			"buffer":0,
			"byteLength":288,
			"byteOffset":0,
			"target":34962
		},
		{
			"buffer":0,
			"byteLength":288,
			"byteOffset":288,
			"target":34962
		},
		{
			"buffer":0,
			"byteLength":192,
			"byteOffset":576,
			"target":34962
		},
		{
			"buffer":0,
			"byteLength":72,
			"byteOffset":768,
			"target":34963
		},
		{
			"buffer":0,
			"byteLength":6048,
			"byteOffset":840,
			"target":34962
		},
		{
			"buffer":0,
			"byteLength":6048,
			"byteOffset":6888,
			"target":34962
		},
		{
			"buffer":0,
			"byteLength":4032,
			"byteOffset":12936,
			"target":34962
		},
		{
			"buffer":0,
			"byteLength":2076,
			"byteOffset":16968,
			"target":34963
		},
		{
			"buffer":0,
			"byteLength":2508,
			"byteOffset":19044,
			"target":34962
		},
		{
			"buffer":0,
			"byteLength":2508,
			"byteOffset":21552,
			"target":34962
		},
		{
			"buffer":0,
			"byteLength":1672,
			"byteOffset":24060,
			"target":34962
		},
		{
			"buffer":0,
			"byteLength":768,
			"byteOffset":25732,
			"target":34963
		}
	],
	"samplers":[
		{
			"magFilter":9729,
			"minFilter":9987
		}
	],
	"buffers":[
		{
			"byteLength":26500,
			"uri":"T_Pedestal.bin"
		}
	]
}
