{
	"asset":{
		"generator":"Khronos glTF Blender I/O v4.1.62",
		"version":"2.0"
	},
	"extensionsUsed":[
		"KHR_materials_emissive_strength"
	],
	"scene":0,
	"scenes":[
		{
			"name":"Scene",
			"nodes":[
				2,
				3
			]
		}
	],
	"nodes":[
		{
			"name":"APmuzzle",
			"rotation":[
				0,
				0.7071068286895752,
				-0.7071068286895752,
				5.0242962053173926e-15
			],
			"scale":[
				320.51727294921875,
				320.51727294921875,
				320.51727294921875
			],
			"translation":[
				-7.35060457373038e-05,
				486.80841064453125,
				-1.538238286972046
			]
		},
		{
			"children":[
				0
			],
			"mesh":0,
			"name":"ws_auto_canon",
			"rotation":[
				0,
				0,
				1,
				7.549790126404332e-08
			],
			"scale":[
				0.0031199567019939423,
				0.0031199567019939423,
				0.0031199567019939423
			],
			"translation":[
				0,
				-0.06915723532438278,
				0.3518340587615967
			]
		},
		{
			"children":[
				1
			],
			"mesh":1,
			"name":"Robot_Scout_Rockie",
			"rotation":[
				0.7071068286895752,
				0,
				0,
				0.7071068286895752
			],
			"scale":[
				2,
				2,
				2
			],
			"translation":[
				0,
				1.0826689004898071,
				0
			]
		},
		{
			"mesh":2,
			"name":"Robot_Scout_Rockie.001",
			"rotation":[
				0.7071068286895752,
				0,
				0,
				0.7071068286895752
			],
			"scale":[
				2,
				2,
				2
			],
			"translation":[
				0,
				1.0826689004898071,
				0
			]
		}
	],
	"materials":[
		{
			"doubleSided":true,
			"name":"weapons_systems_mat",
			"pbrMetallicRoughness":{
				"baseColorTexture":{
					"index":0
				},
				"metallicFactor":0,
				"roughnessFactor":0.5449123978614807
			}
		},
		{
			"doubleSided":true,
			"emissiveTexture":{
				"index":1
			},
			"name":"Robot_Scout_Rockie",
			"normalTexture":{
				"index":2
			},
			"pbrMetallicRoughness":{
				"baseColorTexture":{
					"index":3
				},
				"metallicFactor":0,
				"roughnessFactor":0.5
			}
		},
		{
			"doubleSided":true,
			"emissiveFactor":[
				1,
				1,
				1
			],
			"emissiveTexture":{
				"index":4
			},
			"extensions":{
				"KHR_materials_emissive_strength":{
					"emissiveStrength":200
				}
			},
			"name":"Robot_Scout_Rockie.001",
			"normalTexture":{
				"index":5
			},
			"pbrMetallicRoughness":{
				"baseColorTexture":{
					"index":6
				},
				"metallicFactor":0,
				"roughnessFactor":0.5
			}
		}
	],
	"meshes":[
		{
			"name":"\u30e1\u30c3\u30b7\u30e5",
			"primitives":[
				{
					"attributes":{
						"POSITION":0,
						"NORMAL":1,
						"TEXCOORD_0":2
					},
					"indices":3,
					"material":0
				}
			]
		},
		{
			"name":"Cylinder",
			"primitives":[
				{
					"attributes":{
						"POSITION":4,
						"NORMAL":5,
						"TEXCOORD_0":6
					},
					"indices":7,
					"material":1
				}
			]
		},
		{
			"name":"Cylinder.002",
			"primitives":[
				{
					"attributes":{
						"POSITION":8,
						"NORMAL":9,
						"TEXCOORD_0":10
					},
					"indices":11,
					"material":2
				}
			]
		}
	],
	"textures":[
		{
			"sampler":0,
			"source":0
		},
		{
			"sampler":0,
			"source":1
		},
		{
			"sampler":0,
			"source":2
		},
		{
			"sampler":0,
			"source":3
		},
		{
			"sampler":0,
			"source":1
		},
		{
			"sampler":0,
			"source":2
		},
		{
			"sampler":0,
			"source":3
		}
	],
	"images":[
		{
			"mimeType":"image/png",
			"name":"weapon_systems_Albedo",
			"uri":"weapon_systems_Albedo.png"
		},
		{
			"mimeType":"image/png",
			"name":"Robot_Scout_Rockie_Unity_Robot_Scout_Rockie_AlbedoTranspare",
			"uri":"Robot_Scout_Rockie_Unity_Robot_Scout_Rockie_AlbedoTranspare.png"
		},
		{
			"mimeType":"image/png",
			"name":"Robot_Scout_Rockie_Unity_Robot_Scout_Rockie_Normal",
			"uri":"Robot_Scout_Rockie_Unity_Robot_Scout_Rockie_Normal.png"
		},
		{
			"mimeType":"image/png",
			"name":"Robot_Scout_Rockie_Unity_Robot_Scout_Rockie_AlbedoTransparency",
			"uri":"Robot_Scout_Rockie_Unity_Robot_Scout_Rockie_AlbedoTransparency.png"
		}
	],
	"accessors":[
		{
			"bufferView":0,
			"componentType":5126,
			"count":225,
			"max":[
				46.99658203125,
				486.8162536621094,
				46.996612548828125
			],
			"min":[
				-46.99658203125,
				-3.294128894805908,
				-34.071868896484375
			],
			"type":"VEC3"
		},
		{
			"bufferView":1,
			"componentType":5126,
			"count":225,
			"type":"VEC3"
		},
		{
			"bufferView":2,
			"componentType":5126,
			"count":225,
			"type":"VEC2"
		},
		{
			"bufferView":3,
			"componentType":5123,
			"count":336,
			"type":"SCALAR"
		},
		{
			"bufferView":4,
			"componentType":5126,
			"count":934,
			"max":[
				0.4389350414276123,
				0.7752712965011597,
				0.5149385929107666
			],
			"min":[
				-0.43893179297447205,
				-0.5172255039215088,
				-0.5154228210449219
			],
			"type":"VEC3"
		},
		{
			"bufferView":5,
			"componentType":5126,
			"count":934,
			"type":"VEC3"
		},
		{
			"bufferView":6,
			"componentType":5126,
			"count":934,
			"type":"VEC2"
		},
		{
			"bufferView":7,
			"componentType":5123,
			"count":2751,
			"type":"SCALAR"
		},
		{
			"bufferView":8,
			"componentType":5126,
			"count":94,
			"max":[
				0.4257652163505554,
				0.5011678338050842,
				0.22787761688232422
			],
			"min":[
				-0.42576515674591064,
				-0.40856871008872986,
				-0.22830647230148315
			],
			"type":"VEC3"
		},
		{
			"bufferView":9,
			"componentType":5126,
			"count":94,
			"type":"VEC3"
		},
		{
			"bufferView":10,
			"componentType":5126,
			"count":94,
			"type":"VEC2"
		},
		{
			"bufferView":11,
			"componentType":5123,
			"count":249,
			"type":"SCALAR"
		}
	],
	"bufferViews":[
		{
			"buffer":0,
			"byteLength":2700,
			"byteOffset":0,
			"target":34962
		},
		{
			"buffer":0,
			"byteLength":2700,
			"byteOffset":2700,
			"target":34962
		},
		{
			"buffer":0,
			"byteLength":1800,
			"byteOffset":5400,
			"target":34962
		},
		{
			"buffer":0,
			"byteLength":672,
			"byteOffset":7200,
			"target":34963
		},
		{
			"buffer":0,
			"byteLength":11208,
			"byteOffset":7872,
			"target":34962
		},
		{
			"buffer":0,
			"byteLength":11208,
			"byteOffset":19080,
			"target":34962
		},
		{
			"buffer":0,
			"byteLength":7472,
			"byteOffset":30288,
			"target":34962
		},
		{
			"buffer":0,
			"byteLength":5502,
			"byteOffset":37760,
			"target":34963
		},
		{
			"buffer":0,
			"byteLength":1128,
			"byteOffset":43264,
			"target":34962
		},
		{
			"buffer":0,
			"byteLength":1128,
			"byteOffset":44392,
			"target":34962
		},
		{
			"buffer":0,
			"byteLength":752,
			"byteOffset":45520,
			"target":34962
		},
		{
			"buffer":0,
			"byteLength":498,
			"byteOffset":46272,
			"target":34963
		}
	],
	"samplers":[
		{
			"magFilter":9729,
			"minFilter":9987
		}
	],
	"buffers":[
		{
			"byteLength":46772,
			"uri":"drone.bin"
		}
	]
}
