{
	"asset":{
		"generator":"Khronos glTF Blender I/O v4.1.62",
		"version":"2.0"
	},
	"extensionsUsed":[
		"KHR_materials_emissive_strength"
	],
	"scene":0,
	"scenes":[
		{
			"name":"Scene",
			"nodes":[
				0
			]
		}
	],
	"nodes":[
		{
			"mesh":0,
			"name":"Robot_Scout_Rockie.001",
			"rotation":[
				0.7071068286895752,
				0,
				0,
				0.7071068286895752
			],
			"scale":[
				2,
				2,
				2
			],
			"translation":[
				0,
				1.0826689004898071,
				0
			]
		}
	],
	"materials":[
		{
			"doubleSided":true,
			"emissiveFactor":[
				1,
				1,
				1
			],
			"emissiveTexture":{
				"index":0
			},
			"extensions":{
				"KHR_materials_emissive_strength":{
					"emissiveStrength":1000
				}
			},
			"name":"Robot_Scout_Rockie.001",
			"normalTexture":{
				"index":1
			},
			"pbrMetallicRoughness":{
				"baseColorTexture":{
					"index":2
				},
				"metallicFactor":0,
				"roughnessFactor":0.5
			}
		}
	],
	"meshes":[
		{
			"name":"Cylinder.002",
			"primitives":[
				{
					"attributes":{
						"POSITION":0,
						"NORMAL":1,
						"TEXCOORD_0":2
					},
					"indices":3,
					"material":0
				}
			]
		}
	],
	"textures":[
		{
			"sampler":0,
			"source":0
		},
		{
			"sampler":0,
			"source":1
		},
		{
			"sampler":0,
			"source":2
		}
	],
	"images":[
		{
			"mimeType":"image/png",
			"name":"Robot_Scout_Rockie_Unity_Robot_Scout_Rockie_AlbedoTranspare",
			"uri":"Robot_Scout_Rockie_Unity_Robot_Scout_Rockie_AlbedoTranspare.png"
		},
		{
			"mimeType":"image/png",
			"name":"Robot_Scout_Rockie_Unity_Robot_Scout_Rockie_Normal",
			"uri":"Robot_Scout_Rockie_Unity_Robot_Scout_Rockie_Normal.png"
		},
		{
			"mimeType":"image/png",
			"name":"Robot_Scout_Rockie_Unity_Robot_Scout_Rockie_AlbedoTransparency",
			"uri":"Robot_Scout_Rockie_Unity_Robot_Scout_Rockie_AlbedoTransparency.png"
		}
	],
	"accessors":[
		{
			"bufferView":0,
			"componentType":5126,
			"count":94,
			"max":[
				0.4257652163505554,
				0.5011678338050842,
				0.22787761688232422
			],
			"min":[
				-0.42576515674591064,
				-0.40856871008872986,
				-0.22830647230148315
			],
			"type":"VEC3"
		},
		{
			"bufferView":1,
			"componentType":5126,
			"count":94,
			"type":"VEC3"
		},
		{
			"bufferView":2,
			"componentType":5126,
			"count":94,
			"type":"VEC2"
		},
		{
			"bufferView":3,
			"componentType":5123,
			"count":249,
			"type":"SCALAR"
		}
	],
	"bufferViews":[
		{
			"buffer":0,
			"byteLength":1128,
			"byteOffset":0,
			"target":34962
		},
		{
			"buffer":0,
			"byteLength":1128,
			"byteOffset":1128,
			"target":34962
		},
		{
			"buffer":0,
			"byteLength":752,
			"byteOffset":2256,
			"target":34962
		},
		{
			"buffer":0,
			"byteLength":498,
			"byteOffset":3008,
			"target":34963
		}
	],
	"samplers":[
		{
			"magFilter":9729,
			"minFilter":9987
		}
	],
	"buffers":[
		{
			"byteLength":3508,
			"uri":"droneLight.bin"
		}
	]
}
