{
	"asset":{
		"generator":"Khronos glTF Blender I/O v4.1.62",
		"version":"2.0"
	},
	"extensionsUsed":[
		"KHR_materials_specular"
	],
	"scene":0,
	"scenes":[
		{
			"name":"Scene",
			"nodes":[
				4
			]
		}
	],
	"nodes":[
		{
			"name":"APmuzzle",
			"translation":[
				0,
				-0.0003599226474761963,
				-1.7474863529205322
			]
		},
		{
			"children":[
				0
			],
			"mesh":0,
			"name":"HandRailGun"
		},
		{
			"children":[
				1
			],
			"name":"APgun",
			"rotation":[
				-0.2588191032409668,
				0,
				0,
				0.9659258127212524
			],
			"scale":[
				2,
				2,
				2
			],
			"translation":[
				0,
				0.8389676213264465,
				0.6051756143569946
			]
		},
		{
			"mesh":1,
			"name":"Body_Back",
			"scale":[
				2,
				2,
				2
			]
		},
		{
			"children":[
				2,
				3
			],
			"mesh":2,
			"name":"Body_Front"
		}
	],
	"materials":[
		{
			"doubleSided":true,
			"extensions":{
				"KHR_materials_specular":{
					"specularFactor":0
				}
			},
			"name":"HandRailGun",
			"normalTexture":{
				"index":0
			},
			"pbrMetallicRoughness":{
				"baseColorTexture":{
					"index":1
				},
				"roughnessFactor":0.800000011920929
			}
		},
		{
			"doubleSided":true,
			"name":"Body_Back",
			"normalTexture":{
				"index":2
			},
			"pbrMetallicRoughness":{
				"baseColorTexture":{
					"index":3
				},
				"metallicFactor":0,
				"roughnessFactor":0.5
			}
		},
		{
			"doubleSided":true,
			"name":"Body_Front",
			"normalTexture":{
				"index":4
			},
			"pbrMetallicRoughness":{
				"baseColorTexture":{
					"index":5
				},
				"metallicFactor":0,
				"roughnessFactor":0.5
			}
		}
	],
	"meshes":[
		{
			"name":"\u30e1\u30c3\u30b7\u30e5",
			"primitives":[
				{
					"attributes":{
						"POSITION":0,
						"NORMAL":1,
						"TEXCOORD_0":2
					},
					"indices":3,
					"material":0
				}
			]
		},
		{
			"name":"Cylinder.001",
			"primitives":[
				{
					"attributes":{
						"POSITION":4,
						"NORMAL":5,
						"TEXCOORD_0":6
					},
					"indices":7,
					"material":1
				}
			]
		},
		{
			"name":"Cylinder.031",
			"primitives":[
				{
					"attributes":{
						"POSITION":8,
						"NORMAL":9,
						"TEXCOORD_0":10
					},
					"indices":11,
					"material":2
				}
			]
		}
	],
	"textures":[
		{
			"sampler":0,
			"source":0
		},
		{
			"sampler":0,
			"source":1
		},
		{
			"sampler":0,
			"source":2
		},
		{
			"sampler":0,
			"source":3
		},
		{
			"sampler":0,
			"source":4
		},
		{
			"sampler":0,
			"source":5
		}
	],
	"images":[
		{
			"mimeType":"image/png",
			"name":"HandRailGun_low_all1_HandRailGun_Normal",
			"uri":"HandRailGun_low_all1_HandRailGun_Normal.png"
		},
		{
			"mimeType":"image/png",
			"name":"HandRailGun_low_all1_HandRailGun_AlbedoTransparency",
			"uri":"HandRailGun_low_all1_HandRailGun_AlbedoTransparency.png"
		},
		{
			"mimeType":"image/png",
			"name":"Robot_Scout_HyperX_Low_Body_Back_Normal_Red",
			"uri":"Robot_Scout_HyperX_Low_Body_Back_Normal_Red.png"
		},
		{
			"mimeType":"image/png",
			"name":"Robot_Scout_HyperX_Low_Body_Back_Emission",
			"uri":"Robot_Scout_HyperX_Low_Body_Back_Emission.png"
		},
		{
			"mimeType":"image/png",
			"name":"Robot_Scout_HyperX_Low_Body_Front_Normal_Red",
			"uri":"Robot_Scout_HyperX_Low_Body_Front_Normal_Red.png"
		},
		{
			"mimeType":"image/png",
			"name":"Robot_Scout_HyperX_Low_Body_Front_AlbedoTransparency_Red",
			"uri":"Robot_Scout_HyperX_Low_Body_Front_AlbedoTransparency_Red.png"
		}
	],
	"accessors":[
		{
			"bufferView":0,
			"componentType":5126,
			"count":1733,
			"max":[
				0.21592050790786743,
				0.21511207520961761,
				0.11538609862327576
			],
			"min":[
				-0.22048550844192505,
				-0.2158941924571991,
				-1.7900176048278809
			],
			"type":"VEC3"
		},
		{
			"bufferView":1,
			"componentType":5126,
			"count":1733,
			"type":"VEC3"
		},
		{
			"bufferView":2,
			"componentType":5126,
			"count":1733,
			"type":"VEC2"
		},
		{
			"bufferView":3,
			"componentType":5123,
			"count":1734,
			"type":"SCALAR"
		},
		{
			"bufferView":4,
			"componentType":5126,
			"count":845,
			"max":[
				0.44015514850616455,
				1.5042614936828613,
				0.9831964373588562
			],
			"min":[
				-0.43941861391067505,
				0.4762900173664093,
				0.014730973169207573
			],
			"type":"VEC3"
		},
		{
			"bufferView":5,
			"componentType":5126,
			"count":845,
			"type":"VEC3"
		},
		{
			"bufferView":6,
			"componentType":5126,
			"count":845,
			"type":"VEC2"
		},
		{
			"bufferView":7,
			"componentType":5123,
			"count":2154,
			"type":"SCALAR"
		},
		{
			"bufferView":8,
			"componentType":5126,
			"count":610,
			"max":[
				0.7901303768157959,
				3.057485818862915,
				2.1213572025299072
			],
			"min":[
				-0.7901278138160706,
				0.7482306957244873,
				-0.8392671942710876
			],
			"type":"VEC3"
		},
		{
			"bufferView":9,
			"componentType":5126,
			"count":610,
			"type":"VEC3"
		},
		{
			"bufferView":10,
			"componentType":5126,
			"count":610,
			"type":"VEC2"
		},
		{
			"bufferView":11,
			"componentType":5123,
			"count":2154,
			"type":"SCALAR"
		}
	],
	"bufferViews":[
		{
			"buffer":0,
			"byteLength":20796,
			"byteOffset":0,
			"target":34962
		},
		{
			"buffer":0,
			"byteLength":20796,
			"byteOffset":20796,
			"target":34962
		},
		{
			"buffer":0,
			"byteLength":13864,
			"byteOffset":41592,
			"target":34962
		},
		{
			"buffer":0,
			"byteLength":3468,
			"byteOffset":55456,
			"target":34963
		},
		{
			"buffer":0,
			"byteLength":10140,
			"byteOffset":58924,
			"target":34962
		},
		{
			"buffer":0,
			"byteLength":10140,
			"byteOffset":69064,
			"target":34962
		},
		{
			"buffer":0,
			"byteLength":6760,
			"byteOffset":79204,
			"target":34962
		},
		{
			"buffer":0,
			"byteLength":4308,
			"byteOffset":85964,
			"target":34963
		},
		{
			"buffer":0,
			"byteLength":7320,
			"byteOffset":90272,
			"target":34962
		},
		{
			"buffer":0,
			"byteLength":7320,
			"byteOffset":97592,
			"target":34962
		},
		{
			"buffer":0,
			"byteLength":4880,
			"byteOffset":104912,
			"target":34962
		},
		{
			"buffer":0,
			"byteLength":4308,
			"byteOffset":109792,
			"target":34963
		}
	],
	"samplers":[
		{
			"magFilter":9729,
			"minFilter":9987
		}
	],
	"buffers":[
		{
			"byteLength":114100,
			"uri":"drone.bin"
		}
	]
}
